<?xml version="1.0" encoding="UTF-8"?>
<!DOCTYPE svg PUBLIC "-//W3C//DTD SVG 1.1//EN" "http://www.w3.org/Graphics/SVG/1.1/DTD/svg11.dtd">
<svg xmlns="http://www.w3.org/2000/svg" version="1.1" width="594px" height="131px" style="shape-rendering:geometricPrecision; text-rendering:geometricPrecision; image-rendering:optimizeQuality; fill-rule:evenodd; clip-rule:evenodd" xmlns:xlink="http://www.w3.org/1999/xlink">
    <g><path style="opacity:0.993" fill="#95acc9" d="M 261.5,3.5 C 248.053,3.12223 234.72,3.7889 221.5,5.5C 233.457,1.85265 245.791,0.685981 258.5,2C 259.737,2.23209 260.737,2.73209 261.5,3.5 Z"/></g>
    <g><path style="opacity:0.762" fill="#87a6c4" d="M 36.5,3.5 C 36.5,3.83333 36.5,4.16667 36.5,4.5C 24.8333,4.5 13.1667,4.5 1.5,4.5C 1.5,4.16667 1.5,3.83333 1.5,3.5C 13.4141,3.44459 25.0808,3.44459 36.5,3.5 Z"/></g>
    <g><path style="opacity:0.898" fill="#9cb9d1" d="M 354.5,2.5 C 358.277,2.93367 361.61,4.267 364.5,6.5C 360.563,6.25927 357.23,4.92594 354.5,2.5 Z"/></g>
    <g><path style="opacity:0.765" fill="#85a5c3" d="M 392.5,4.5 C 392.5,4.16667 392.5,3.83333 392.5,3.5C 403.221,2.85805 413.554,3.52472 423.5,5.5C 413.249,4.52502 402.915,4.19168 392.5,4.5 Z"/></g>
    <g><path style="opacity:0.875" fill="#9db7ce" d="M 447.5,2.5 C 445.485,3.92381 443.152,4.59047 440.5,4.5C 442.515,3.07619 444.848,2.40953 447.5,2.5 Z"/></g>
    <g><path style="opacity:1" fill="#799dbf" d="M 472.5,6.5 C 461.811,3.9972 451.144,3.9972 440.5,6.5C 438.08,9.07722 435.08,10.0772 431.5,9.5C 431.833,8.83333 432.167,8.16667 432.5,7.5C 435.491,7.83372 437.824,6.83372 439.5,4.5C 439.833,4.5 440.167,4.5 440.5,4.5C 443.152,4.59047 445.485,3.92381 447.5,2.5C 452.65,1.34926 457.984,1.18259 463.5,2C 467.035,2.66326 470.035,4.16326 472.5,6.5 Z"/></g>
    <g><path style="opacity:0.91" fill="#9eaec3" d="M 140.5,3.5 C 138.316,5.5848 135.649,6.5848 132.5,6.5C 134.684,4.4152 137.351,3.4152 140.5,3.5 Z"/></g>
    <g><path style="opacity:0.925" fill="#9dbbcf" d="M 261.5,3.5 C 263.553,3.40206 265.22,4.06873 266.5,5.5C 264.219,5.92271 262.552,5.25605 261.5,3.5 Z"/></g>
    <g><path style="opacity:0.902" fill="#9fb5cd" d="M 531.5,3.5 C 529.898,5.07394 527.898,5.74061 525.5,5.5C 527.102,3.92606 529.102,3.25939 531.5,3.5 Z"/></g>
    <g><path style="opacity:0.549" fill="#b9d0e2" d="M 555.5,3.5 C 555.5,3.16667 555.5,2.83333 555.5,2.5C 558.542,2.73292 561.208,3.73292 563.5,5.5C 560.779,5.03717 558.112,4.3705 555.5,3.5 Z"/></g>
    <g><path style="opacity:1" fill="#5a8fbe" d="M 261.5,3.5 C 262.552,5.25605 264.219,5.92271 266.5,5.5C 268.926,7.66663 271.259,9.99996 273.5,12.5C 271.906,12.0805 270.406,11.4138 269,10.5C 267.941,10.6301 267.108,11.1301 266.5,12C 268.059,12.9799 269.726,13.8133 271.5,14.5C 271.023,15.4776 270.357,16.3109 269.5,17C 270.337,18.0113 270.67,19.1779 270.5,20.5C 268.322,19.796 266.322,19.4626 264.5,19.5C 263.749,20.376 263.249,21.376 263,22.5C 260.774,20.6763 259.274,18.843 258.5,17C 260.701,15.9568 263.034,15.1235 265.5,14.5C 262.255,13.5552 259.588,11.8885 257.5,9.5C 255.795,10.545 254.295,11.8783 253,13.5C 252,13.1667 251,12.8333 250,12.5C 249.333,15.1667 248.667,15.1667 248,12.5C 245.799,13.9959 243.299,14.9959 240.5,15.5C 245.565,15.43 250.565,15.5967 255.5,16C 250.938,19.0541 246.272,19.5541 241.5,17.5C 240.354,18.1449 239.354,18.9783 238.5,20C 243.841,21.1182 249.174,21.9515 254.5,22.5C 246.772,22.1885 239.105,22.6885 231.5,24C 229.808,25.4007 229.141,27.2341 229.5,29.5C 228.566,30.5676 228.232,31.901 228.5,33.5C 222.833,33.5 217.167,33.5 211.5,33.5C 211.334,25.8261 211.5,18.1594 212,10.5C 214.574,8.99806 217.407,7.99806 220.5,7.5C 220.863,6.81654 221.196,6.14987 221.5,5.5C 234.72,3.7889 248.053,3.12223 261.5,3.5 Z"/></g>
    <g><path style="opacity:0.839" fill="#aebcce" d="M 439.5,4.5 C 437.824,6.83372 435.491,7.83372 432.5,7.5C 434.509,5.93482 436.843,4.93482 439.5,4.5 Z"/></g>
    <g><path style="opacity:1" fill="#7b9abb" d="M 555.5,2.5 C 555.5,2.83333 555.5,3.16667 555.5,3.5C 548.825,3.33375 542.158,3.50042 535.5,4C 530.677,5.70148 526.01,7.70148 521.5,10C 517.361,13.647 513.861,17.8137 511,22.5C 510.343,30.5228 510.51,38.5228 511.5,46.5C 511.167,46.5 510.833,46.5 510.5,46.5C 508.27,38.5986 507.936,30.5986 509.5,22.5C 512.1,14.2337 517.434,8.56708 525.5,5.5C 527.898,5.74061 529.898,5.07394 531.5,3.5C 535.728,1.97451 540.228,1.30784 545,1.5C 548.583,1.53713 552.083,1.87047 555.5,2.5 Z"/></g>
    <g><path style="opacity:1" fill="#aeccdf" d="M 266.5,5.5 C 271.104,7.1053 274.438,10.1053 276.5,14.5C 275.5,13.8333 274.5,13.1667 273.5,12.5C 271.259,9.99996 268.926,7.66663 266.5,5.5 Z"/></g>
    <g><path style="opacity:1" fill="#8ba4bd" d="M 330.5,3.5 C 327.705,6.23087 324.372,7.89753 320.5,8.5C 323.235,5.79891 326.569,4.13224 330.5,3.5 Z"/></g>
    <g><path style="opacity:0.988" fill="#9cb8d2" d="M 364.5,6.5 C 366.853,7.34026 368.853,8.6736 370.5,10.5C 368.188,9.68045 365.854,8.84712 363.5,8C 364.056,7.61742 364.389,7.11742 364.5,6.5 Z"/></g>
    <g><path style="opacity:1" fill="#5c8fbd" d="M 1.5,4.5 C 13.1667,4.5 24.8333,4.5 36.5,4.5C 36.5,23.5 36.5,42.5 36.5,61.5C 37.1667,64.5 37.8333,67.5 38.5,70.5C 39.5,70.5 40.5,70.5 41.5,70.5C 45.4126,71.5958 49.4126,71.7625 53.5,71C 54.056,70.6174 54.3893,70.1174 54.5,69.5C 57.8992,69.3915 60.5659,68.0582 62.5,65.5C 64.0269,65.573 65.0269,64.9063 65.5,63.5C 67.0269,63.573 68.0269,62.9063 68.5,61.5C 69.1174,61.3893 69.6174,61.056 70,60.5C 70.4999,47.8377 70.6666,35.1711 70.5,22.5C 71.4957,35.9898 71.829,49.6565 71.5,63.5C 70.6981,64.9516 70.1981,66.6183 70,68.5C 67.2595,69.2822 64.4262,69.7822 61.5,70C 61.1667,70.3333 60.8333,70.6667 60.5,71C 61.448,71.4828 62.448,71.6495 63.5,71.5C 63.5,72.5 63.5,73.5 63.5,74.5C 59.2674,74.3319 58.2674,75.6652 60.5,78.5C 60.2907,79.086 59.9574,79.586 59.5,80C 65.0704,80.2115 70.737,81.0448 76.5,82.5C 76.2222,84.3464 76.8888,85.6798 78.5,86.5C 79.2929,83.8737 80.9595,82.0404 83.5,81C 81.6602,78.1737 80.9935,75.0071 81.5,71.5C 82.675,71.281 83.675,71.6143 84.5,72.5C 85.7883,75.0335 85.7883,77.5335 84.5,80C 86.0609,80.3176 87.2276,81.1509 88,82.5C 88.96,80.0197 89.7934,77.5197 90.5,75C 89.6433,74.3109 88.9767,73.4776 88.5,72.5C 89.7117,72.9302 91.045,72.9302 92.5,72.5C 97.1667,72.5 101.833,72.5 106.5,72.5C 106.5,75.8333 106.5,79.1667 106.5,82.5C 105.839,83.7175 105.172,85.0508 104.5,86.5C 96.4191,89.1745 88.0857,90.1745 79.5,89.5C 78.609,88.8902 77.609,88.5569 76.5,88.5C 76.0269,87.0937 75.0269,86.427 73.5,86.5C 72.6618,86.1583 72.3284,85.4916 72.5,84.5C 71.9473,82.4482 70.9473,82.1148 69.5,83.5C 67.6644,85.588 65.3311,86.9213 62.5,87.5C 60.4727,87.3379 58.4727,87.5045 56.5,88C 54.9221,89.0945 53.2554,89.9278 51.5,90.5C 43.7989,90.6911 36.1322,90.3577 28.5,89.5C 28.0269,88.0937 27.0269,87.427 25.5,87.5C 25.082,84.5611 23.582,82.2278 21,80.5C 20.2715,77.8132 19.1049,75.4799 17.5,73.5C 16.8333,72.8333 16.1667,72.1667 15.5,71.5C 14.6586,69.6208 14.3253,67.6208 14.5,65.5C 14.5,50.8333 14.5,36.1667 14.5,21.5C 10.1667,21.5 5.83333,21.5 1.5,21.5C 1.5,15.8333 1.5,10.1667 1.5,4.5 Z"/></g>
    <g><path style="opacity:0.612" fill="#b5d3e7" d="M 472.5,6.5 C 475.167,7.16667 476.833,8.83333 477.5,11.5C 476.5,10.8333 475.5,10.1667 474.5,9.5C 473.599,8.70951 472.932,7.70951 472.5,6.5 Z"/></g>
    <g><path style="opacity:1" fill="#5a8fc0" d="M 591.5,15.5 C 591.5,16.1667 591.5,16.8333 591.5,17.5C 589.833,17.5 588.167,17.5 586.5,17.5C 586.5,18.5 586.5,19.5 586.5,20.5C 587.822,20.67 588.989,20.3366 590,19.5C 590.49,20.7932 590.657,22.1266 590.5,23.5C 584.941,24.1577 581.775,21.8244 581,16.5C 577.186,14.9807 576.019,16.1474 577.5,20C 577.37,21.0588 576.87,21.8921 576,22.5C 573.959,21.5769 571.792,21.2436 569.5,21.5C 569.813,18.7531 569.48,16.0865 568.5,13.5C 561.909,13.5677 555.242,13.7344 548.5,14C 537.888,16.7403 537.888,17.907 548.5,17.5C 550.355,17.3402 551.688,18.0069 552.5,19.5C 546.986,20.1665 541.319,20.8332 535.5,21.5C 532.61,25.7018 530.443,25.3684 529,20.5C 528.167,21.5 527.333,22.5 526.5,23.5C 525.288,21.164 525.621,18.9973 527.5,17C 526.728,15.779 525.728,14.779 524.5,14C 526.579,13.1923 528.579,13.359 530.5,14.5C 529.691,16.0709 529.357,17.7376 529.5,19.5C 531.5,19.5 533.5,19.5 535.5,19.5C 535.201,17.396 535.534,15.396 536.5,13.5C 537.086,13.7093 537.586,14.0426 538,14.5C 539.589,12.9736 541.423,11.8069 543.5,11C 548.519,10.9418 553.352,10.1084 558,8.5C 563.291,11.3712 568.291,11.7045 573,9.5C 578.665,9.6336 584.498,9.6336 590.5,9.5C 590.205,11.7354 590.539,13.7354 591.5,15.5 Z"/></g>
    <g><path style="opacity:1" fill="#598fbe" d="M 90.5,9.5 C 89.325,9.28099 88.325,9.61432 87.5,10.5C 88.6524,27.7893 88.8191,45.1226 88,62.5C 86.3333,64.1667 84.6667,65.8333 83,67.5C 80.9957,64.5254 79.9957,61.1921 80,57.5C 78.6667,58.8333 77.3333,58.8333 76,57.5C 77.1024,61.2504 75.6024,63.2504 71.5,63.5C 71.829,49.6565 71.4957,35.9898 70.5,22.5C 70.1667,22.5 69.8333,22.5 69.5,22.5C 66.7131,21.5233 63.7131,21.19 60.5,21.5C 60.5,16.1667 60.5,10.8333 60.5,5.5C 64.0365,6.57019 67.7031,7.23686 71.5,7.5C 77.8075,6.47348 84.1408,5.80682 90.5,5.5C 90.5,6.83333 90.5,8.16667 90.5,9.5 Z"/></g>
    <g><path style="opacity:0.678" fill="#a7bad0" d="M 132.5,6.5 C 130.85,9.06059 128.516,10.7273 125.5,11.5C 126.992,8.67686 129.326,7.01019 132.5,6.5 Z"/></g>
    <g><path style="opacity:1" fill="#598fbf" d="M 167.5,5.5 C 178.469,6.40691 189.469,6.74024 200.5,6.5C 200.5,12.8333 200.5,19.1667 200.5,25.5C 197.167,25.5 193.833,25.5 190.5,25.5C 190.5,29.5 190.5,33.5 190.5,37.5C 189.5,37.5 188.5,37.5 187.5,37.5C 187.296,40.5176 186.963,43.5176 186.5,46.5C 182.516,46.4723 181.516,48.139 183.5,51.5C 182.022,51.238 180.689,51.5713 179.5,52.5C 178.064,53.9337 176.398,55.1004 174.5,56C 174.957,56.414 175.291,56.914 175.5,57.5C 173.709,58.1698 172.042,58.8365 170.5,59.5C 166.821,59.7244 163.154,60.0578 159.5,60.5C 159.5,59.5 159.5,58.5 159.5,57.5C 162.607,57.6488 165.607,57.1488 168.5,56C 168.167,55.6667 167.833,55.3333 167.5,55C 168.618,53.9264 169.618,52.7598 170.5,51.5C 171.736,52.2458 173.07,52.5792 174.5,52.5C 174.48,50.857 175.147,49.5237 176.5,48.5C 175.675,47.6143 174.675,47.281 173.5,47.5C 173.72,43.0467 172.72,39.0467 170.5,35.5C 170.946,32.9899 170.28,30.9899 168.5,29.5C 168.5,28.5 168.5,27.5 168.5,26.5C 168.141,24.629 167.141,23.129 165.5,22C 162.204,21.5209 159.537,20.0209 157.5,17.5C 151.401,17.6945 145.235,18.0278 139,18.5C 137.437,17.8979 137.604,17.0646 139.5,16C 137.228,15.0589 135.228,13.7255 133.5,12C 135.689,11.323 136.022,10.1563 134.5,8.5C 137.168,7.26222 139.834,7.26222 142.5,8.5C 145.465,6.373 145.131,5.20633 141.5,5C 150.194,4.28941 158.861,4.45608 167.5,5.5 Z"/></g>
    <g><path style="opacity:0.8" fill="#bdd5e5" d="M 370.5,10.5 C 372.587,11.5846 373.92,13.2512 374.5,15.5C 373.167,14.5 371.833,13.5 370.5,12.5C 370.5,11.8333 370.5,11.1667 370.5,10.5 Z"/></g>
    <g><path style="opacity:1" fill="#5b90bf" d="M 472.5,6.5 C 472.932,7.70951 473.599,8.70951 474.5,9.5C 474.5,10.8333 474.5,12.1667 474.5,13.5C 472.633,13.955 470.8,14.6216 469,15.5C 467.674,15.2451 466.674,14.5784 466,13.5C 465.173,14.6621 464.34,15.8288 463.5,17C 464.33,18.4651 464.496,19.9651 464,21.5C 462.658,20.0977 461.824,20.4311 461.5,22.5C 462.117,25.3554 463.117,28.0221 464.5,30.5C 464.332,32.1705 463.665,33.5039 462.5,34.5C 462.514,24.0234 457.514,20.0234 447.5,22.5C 444.364,21.9791 442.03,22.9791 440.5,25.5C 440.158,26.3382 439.492,26.6716 438.5,26.5C 437.735,26.0766 436.902,25.7432 436,25.5C 433.549,27.5948 430.715,28.5948 427.5,28.5C 421.429,31.7453 419.763,36.7453 422.5,43.5C 422.658,45.3186 421.991,46.6519 420.5,47.5C 419.67,53.1376 419.17,58.8042 419,64.5C 418.667,64.1667 418.333,63.8333 418,63.5C 417.915,65.0846 417.749,66.4179 417.5,67.5C 416.28,67.1131 415.613,66.2798 415.5,65C 416.185,54.1012 417.018,43.2678 418,32.5C 416.667,31.1667 415.333,29.8333 414,28.5C 413.667,40.5 413.333,52.5 413,64.5C 412.182,68.2837 411.182,71.9504 410,75.5C 408.128,58.488 408.128,41.488 410,24.5C 411.011,23.6634 412.178,23.33 413.5,23.5C 413.5,20.8333 413.5,18.1667 413.5,15.5C 412.167,15.5 410.833,15.5 409.5,15.5C 410.167,17.8194 410.334,20.1527 410,22.5C 408.989,23.3366 407.822,23.67 406.5,23.5C 406.83,39.3422 406.496,55.0089 405.5,70.5C 405.5,54.5 405.5,38.5 405.5,22.5C 405.762,21.0222 405.429,19.6888 404.5,18.5C 401.444,20.2892 398.111,20.9559 394.5,20.5C 394.5,15.5 394.5,10.5 394.5,5.5C 403.5,5.5 412.5,5.5 421.5,5.5C 421.031,8.3933 422.031,10.3933 424.5,11.5C 425.791,11.7373 426.791,11.404 427.5,10.5C 427.842,9.66175 428.508,9.32842 429.5,9.5C 430.167,9.5 430.833,9.5 431.5,9.5C 435.08,10.0772 438.08,9.07722 440.5,6.5C 451.144,3.9972 461.811,3.9972 472.5,6.5 Z"/></g>
    <g><path style="opacity:0.255" fill="#beddf1" d="M 423.5,5.5 C 424.485,7.50607 425.818,9.17274 427.5,10.5C 426.791,11.404 425.791,11.7373 424.5,11.5C 423.85,9.56475 423.517,7.56475 423.5,5.5 Z"/></g>
    <g><path style="opacity:0.494" fill="#c6d4e6" d="M 432.5,7.5 C 432.167,8.16667 431.833,8.83333 431.5,9.5C 430.833,9.5 430.167,9.5 429.5,9.5C 429.973,8.09368 430.973,7.42702 432.5,7.5 Z"/></g>
    <g><path style="opacity:1" fill="#5a90bf" d="M 474.5,9.5 C 475.5,10.1667 476.5,10.8333 477.5,11.5C 477.427,13.0269 478.094,14.0269 479.5,14.5C 479.12,16.698 479.787,18.3646 481.5,19.5C 481.294,22.4951 481.96,25.1617 483.5,27.5C 483.5,28.1667 483.5,28.8333 483.5,29.5C 483.171,44.0097 483.504,58.3431 484.5,72.5C 484.116,74.6648 484.783,76.3315 486.5,77.5C 487.429,76.3112 487.762,74.9778 487.5,73.5C 490.5,73.5 493.5,73.5 496.5,73.5C 496.5,77.8333 496.5,82.1667 496.5,86.5C 487.586,88.3286 478.586,88.8286 469.5,88C 467.485,84.7222 465.151,81.8888 462.5,79.5C 462.5,64.5 462.5,49.5 462.5,34.5C 463.665,33.5039 464.332,32.1705 464.5,30.5C 463.117,28.0221 462.117,25.3554 461.5,22.5C 461.824,20.4311 462.658,20.0977 464,21.5C 464.496,19.9651 464.33,18.4651 463.5,17C 464.34,15.8288 465.173,14.6621 466,13.5C 466.674,14.5784 467.674,15.2451 469,15.5C 470.8,14.6216 472.633,13.955 474.5,13.5C 474.5,12.1667 474.5,10.8333 474.5,9.5 Z"/></g>
    <g><path style="opacity:0.212" fill="#cfe8f9" d="M 477.5,11.5 C 478.906,11.9731 479.573,12.9731 479.5,14.5C 478.094,14.0269 477.427,13.0269 477.5,11.5 Z"/></g>
    <g><path style="opacity:1" fill="#5b90be" d="M 591.5,17.5 C 591.5,20.1667 591.5,22.8333 591.5,25.5C 588.167,25.5 584.833,25.5 581.5,25.5C 581.5,30.8333 581.5,36.1667 581.5,41.5C 581.598,43.5529 580.931,45.2196 579.5,46.5C 578.167,46.5 576.833,46.5 575.5,46.5C 575.5,48.5 575.5,50.5 575.5,52.5C 574.167,53.1667 573.167,54.1667 572.5,55.5C 572.5,56.1667 572.167,56.5 571.5,56.5C 570.5,56.5 569.5,56.5 568.5,56.5C 568.5,55.5 568.5,54.5 568.5,53.5C 565.91,53.3962 563.577,54.0629 561.5,55.5C 559.128,54.6372 559.128,53.4705 561.5,52C 561.034,50.7012 561.034,49.2012 561.5,47.5C 562.873,47.6567 564.207,47.49 565.5,47C 566.641,44.6921 568.308,42.8587 570.5,41.5C 572.312,38.3974 573.312,35.0641 573.5,31.5C 572.178,31.67 571.011,31.3366 570,30.5C 569.054,33.3118 567.387,35.6452 565,37.5C 564.617,36.944 564.117,36.6107 563.5,36.5C 562.907,33.4041 563.907,31.0708 566.5,29.5C 565.833,26.8333 564.167,25.1667 561.5,24.5C 560.548,22.9547 560.215,21.288 560.5,19.5C 557.691,19.957 555.024,19.957 552.5,19.5C 551.688,18.0069 550.355,17.3402 548.5,17.5C 537.888,17.907 537.888,16.7403 548.5,14C 555.242,13.7344 561.909,13.5677 568.5,13.5C 569.48,16.0865 569.813,18.7531 569.5,21.5C 571.792,21.2436 573.959,21.5769 576,22.5C 576.87,21.8921 577.37,21.0588 577.5,20C 576.019,16.1474 577.186,14.9807 581,16.5C 581.775,21.8244 584.941,24.1577 590.5,23.5C 590.657,22.1266 590.49,20.7932 590,19.5C 588.989,20.3366 587.822,20.67 586.5,20.5C 586.5,19.5 586.5,18.5 586.5,17.5C 588.167,17.5 589.833,17.5 591.5,17.5 Z"/></g>
    <g><path style="opacity:0.405" fill="#cee7fb" d="M 36.5,3.5 C 37.3019,4.95161 37.8019,6.61828 38,8.5C 38.3853,27.2357 38.552,45.9024 38.5,64.5C 37.8333,63.5 37.1667,62.5 36.5,61.5C 36.5,42.5 36.5,23.5 36.5,4.5C 36.5,4.16667 36.5,3.83333 36.5,3.5 Z"/></g>
    <g><path style="opacity:0.561" fill="#b0c1d7" d="M 125.5,11.5 C 124.92,13.7488 123.587,15.4154 121.5,16.5C 122.08,14.2512 123.413,12.5846 125.5,11.5 Z"/></g>
    <g><path style="opacity:0.998" fill="#5f8eb6" d="M 59.5,4.5 C 70.1667,4.5 80.8333,4.5 91.5,4.5C 91.5,26.5 91.5,48.5 91.5,70.5C 90.4138,70.38 89.7472,69.7133 89.5,68.5C 90.4761,48.8607 90.8095,29.194 90.5,9.5C 90.5,8.16667 90.5,6.83333 90.5,5.5C 84.1408,5.80682 77.8075,6.47348 71.5,7.5C 67.7031,7.23686 64.0365,6.57019 60.5,5.5C 60.5,10.8333 60.5,16.1667 60.5,21.5C 63.7131,21.19 66.7131,21.5233 69.5,22.5C 66.1667,22.5 62.8333,22.5 59.5,22.5C 59.5,16.5 59.5,10.5 59.5,4.5 Z"/></g>
    <g><path style="opacity:0.819" fill="#86a9c9" d="M 92.5,3.5 C 92.5,26.1667 92.5,48.8333 92.5,71.5C 91.8333,71.5 91.5,71.1667 91.5,70.5C 91.5,48.5 91.5,26.5 91.5,4.5C 80.8333,4.5 70.1667,4.5 59.5,4.5C 59.5,4.16667 59.5,3.83333 59.5,3.5C 70.807,3.45997 81.807,3.45997 92.5,3.5 Z"/></g>
    <g><path style="opacity:1" fill="#6392bd" d="M 167.5,3.5 C 167.5,4.16667 167.5,4.83333 167.5,5.5C 158.861,4.45608 150.194,4.28941 141.5,5C 145.131,5.20633 145.465,6.373 142.5,8.5C 139.834,7.26222 137.168,7.26222 134.5,8.5C 136.022,10.1563 135.689,11.323 133.5,12C 135.228,13.7255 137.228,15.0589 139.5,16C 137.604,17.0646 137.437,17.8979 139,18.5C 145.235,18.0278 151.401,17.6945 157.5,17.5C 159.537,20.0209 162.204,21.5209 165.5,22C 167.141,23.129 168.141,24.629 168.5,26.5C 167.167,26.1667 165.833,25.8333 164.5,25.5C 162.597,25.2041 160.93,24.5375 159.5,23.5C 153.99,22.4183 148.323,22.4183 142.5,23.5C 142.5,24.5 142.5,25.5 142.5,26.5C 141.5,26.5 140.5,26.5 139.5,26.5C 139.5,29.5 139.5,32.5 139.5,35.5C 139.238,36.9778 139.571,38.3112 140.5,39.5C 141.695,41.297 143.362,42.297 145.5,42.5C 146.492,42.3284 147.158,42.6618 147.5,43.5C 144.518,43.8956 141.851,43.2289 139.5,41.5C 137.691,37.0375 137.358,32.5375 138.5,28C 137.336,25.7525 136.003,23.5858 134.5,21.5C 132.51,23.6558 130.343,25.6558 128,27.5C 127.395,25.5188 126.395,25.1854 125,26.5C 124.333,23.8333 123.667,21.1667 123,18.5C 122.28,20.0557 121.113,21.0557 119.5,21.5C 119.5,20.8333 119.5,20.1667 119.5,19.5C 120.906,19.0269 121.573,18.0269 121.5,16.5C 123.587,15.4154 124.92,13.7488 125.5,11.5C 128.516,10.7273 130.85,9.06059 132.5,6.5C 135.649,6.5848 138.316,5.5848 140.5,3.5C 149.4,0.859407 158.4,0.859407 167.5,3.5 Z"/></g>
    <g><path style="opacity:0.453" fill="#c5cddb" d="M 212.5,7.5 C 212.217,8.28913 211.717,8.9558 211,9.5C 210.5,17.8267 210.334,26.16 210.5,34.5C 210.167,34.5 209.833,34.5 209.5,34.5C 208.131,25.8566 208.297,17.19 210,8.5C 210.671,7.74756 211.504,7.41423 212.5,7.5 Z"/></g>
    <g><path style="opacity:0.404" fill="#ccccd7" d="M 1.5,3.5 C 1.5,3.83333 1.5,4.16667 1.5,4.5C 1.5,10.1667 1.5,15.8333 1.5,21.5C 1.16667,21.5 0.833333,21.5 0.5,21.5C 0.166667,21.5 -0.166667,21.5 -0.5,21.5C -0.5,16.5 -0.5,11.5 -0.5,6.5C 0.166667,5.5 0.833333,4.5 1.5,3.5 Z"/></g>
    <g><path style="opacity:0.216" fill="#c9d0df" d="M 59.5,3.5 C 59.5,3.83333 59.5,4.16667 59.5,4.5C 59.5,10.5 59.5,16.5 59.5,22.5C 62.8333,22.5 66.1667,22.5 69.5,22.5C 69.5,22.8333 69.5,23.1667 69.5,23.5C 65.8333,23.5 62.1667,23.5 58.5,23.5C 58.176,16.6457 58.5093,9.97904 59.5,3.5 Z"/></g>
    <g><path style="opacity:1" fill="#738eae" d="M 221.5,5.5 C 221.196,6.14987 220.863,6.81654 220.5,7.5C 217.407,7.99806 214.574,8.99806 212,10.5C 211.5,18.1594 211.334,25.8261 211.5,33.5C 217.167,33.5 222.833,33.5 228.5,33.5C 228.232,31.901 228.566,30.5676 229.5,29.5C 229.5,31.1667 229.5,32.8333 229.5,34.5C 223.167,34.5 216.833,34.5 210.5,34.5C 210.334,26.16 210.5,17.8267 211,9.5C 211.717,8.9558 212.217,8.28913 212.5,7.5C 215.37,6.36639 218.37,5.69973 221.5,5.5 Z"/></g>
    <g><path style="opacity:0.153" fill="#cfe5f6" d="M 276.5,14.5 C 277.906,14.9731 278.573,15.9731 278.5,17.5C 277.094,17.0269 276.427,16.0269 276.5,14.5 Z"/></g>
    <g><path style="opacity:0.569" fill="#abcee9" d="M 374.5,15.5 C 375.906,15.9731 376.573,16.9731 376.5,18.5C 375.094,18.0269 374.427,17.0269 374.5,15.5 Z"/></g>
    <g><path style="opacity:0.937" fill="#b1d2e9" d="M 479.5,14.5 C 480.537,15.9303 481.204,17.597 481.5,19.5C 479.787,18.3646 479.12,16.698 479.5,14.5 Z"/></g>
    <g><path style="opacity:0.803" fill="#abc6da" d="M 563.5,5.5 C 573.582,5.19256 583.582,5.5259 593.5,6.5C 593.5,13.1667 593.5,19.8333 593.5,26.5C 589.833,26.5 586.167,26.5 582.5,26.5C 583.936,31.7266 583.603,36.7266 581.5,41.5C 581.5,36.1667 581.5,30.8333 581.5,25.5C 584.833,25.5 588.167,25.5 591.5,25.5C 591.5,22.8333 591.5,20.1667 591.5,17.5C 591.5,16.8333 591.5,16.1667 591.5,15.5C 591.5,12.5 591.5,9.5 591.5,6.5C 581.985,6.82689 572.652,6.49356 563.5,5.5 Z"/></g>
    <g><path style="opacity:0.22" fill="#cfd2dc" d="M 121.5,16.5 C 121.573,18.0269 120.906,19.0269 119.5,19.5C 119.427,17.9731 120.094,16.9731 121.5,16.5 Z"/></g>
    <g><path style="opacity:0.725" fill="#adc7de" d="M 167.5,3.5 C 169.308,3.49136 170.975,3.99136 172.5,5C 182.167,5.33333 191.833,5.66667 201.5,6C 202.479,12.7445 202.812,19.5778 202.5,26.5C 198.833,26.5 195.167,26.5 191.5,26.5C 193.006,31.7374 192.672,36.7374 190.5,41.5C 190.5,40.1667 190.5,38.8333 190.5,37.5C 190.5,33.5 190.5,29.5 190.5,25.5C 193.833,25.5 197.167,25.5 200.5,25.5C 200.5,19.1667 200.5,12.8333 200.5,6.5C 189.469,6.74024 178.469,6.40691 167.5,5.5C 167.5,4.83333 167.5,4.16667 167.5,3.5 Z"/></g>
    <g><path style="opacity:1" fill="#658db0" d="M 392.5,4.5 C 402.915,4.19168 413.249,4.52502 423.5,5.5C 423.517,7.56475 423.85,9.56475 424.5,11.5C 422.031,10.3933 421.031,8.3933 421.5,5.5C 412.5,5.5 403.5,5.5 394.5,5.5C 394.5,10.5 394.5,15.5 394.5,20.5C 398.111,20.9559 401.444,20.2892 404.5,18.5C 405.429,19.6888 405.762,21.0222 405.5,22.5C 401.167,22.5 396.833,22.5 392.5,22.5C 392.5,16.5 392.5,10.5 392.5,4.5 Z"/></g>
    <g><path style="opacity:1" fill="#95a8c3" d="M 320.5,8.5 C 318.539,10.9635 316.372,13.2968 314,15.5C 312.064,19.9186 309.564,23.9186 306.5,27.5C 306.167,27.5 305.833,27.5 305.5,27.5C 308.366,19.4122 313.366,13.0789 320.5,8.5 Z"/></g>
    <g><path style="opacity:0.201" fill="#b3cee7" d="M 159.5,23.5 C 153.489,22.8901 147.822,23.8901 142.5,26.5C 142.5,25.5 142.5,24.5 142.5,23.5C 148.323,22.4183 153.99,22.4183 159.5,23.5 Z"/></g>
    <g><path style="opacity:1" fill="#5a8fbe" d="M 370.5,12.5 C 371.833,13.5 373.167,14.5 374.5,15.5C 374.427,17.0269 375.094,18.0269 376.5,18.5C 378.294,23.4393 380.127,28.4393 382,33.5C 382.497,36.146 382.664,38.8127 382.5,41.5C 382.5,45.8333 382.5,50.1667 382.5,54.5C 377.167,54.5 371.833,54.5 366.5,54.5C 366.577,53.2502 367.244,52.4169 368.5,52C 366.487,51.1247 366.487,49.7913 368.5,48C 371.146,47.5026 373.813,47.3359 376.5,47.5C 376.657,46.1266 376.49,44.7932 376,43.5C 375.692,44.3081 375.192,44.9747 374.5,45.5C 373.158,43.9951 371.492,43.3285 369.5,43.5C 369.024,40.0729 369.024,36.7395 369.5,33.5C 369.167,32.8333 368.833,32.1667 368.5,31.5C 367.575,32.6405 366.741,32.6405 366,31.5C 365.167,27.5057 363.001,24.5057 359.5,22.5C 358.626,19.6251 358.626,16.7918 359.5,14C 362.208,13.7639 364.708,12.9305 367,11.5C 368.138,11.9891 369.305,12.3225 370.5,12.5 Z"/></g>
    <g><path style="opacity:0.192" fill="#d4dff2" d="M 392.5,3.5 C 392.5,3.83333 392.5,4.16667 392.5,4.5C 392.5,10.5 392.5,16.5 392.5,22.5C 396.833,22.5 401.167,22.5 405.5,22.5C 405.5,38.5 405.5,54.5 405.5,70.5C 405.167,70.5 404.833,70.5 404.5,70.5C 404.5,54.8333 404.5,39.1667 404.5,23.5C 400.167,23.5 395.833,23.5 391.5,23.5C 391.176,16.6457 391.509,9.97904 392.5,3.5 Z"/></g>
    <g><path style="opacity:0.206" fill="#b1cce5" d="M 447.5,22.5 C 449.735,22.2053 451.735,22.5386 453.5,23.5C 449.007,23.2694 444.674,23.936 440.5,25.5C 442.03,22.9791 444.364,21.9791 447.5,22.5 Z"/></g>
    <g><path style="opacity:1" fill="#5c8fbd" d="M 555.5,3.5 C 558.112,4.3705 560.779,5.03717 563.5,5.5C 572.652,6.49356 581.985,6.82689 591.5,6.5C 591.5,9.5 591.5,12.5 591.5,15.5C 590.539,13.7354 590.205,11.7354 590.5,9.5C 584.498,9.6336 578.665,9.6336 573,9.5C 568.291,11.7045 563.291,11.3712 558,8.5C 553.352,10.1084 548.519,10.9418 543.5,11C 541.423,11.8069 539.589,12.9736 538,14.5C 537.586,14.0426 537.086,13.7093 536.5,13.5C 535.534,15.396 535.201,17.396 535.5,19.5C 533.5,19.5 531.5,19.5 529.5,19.5C 529.357,17.7376 529.691,16.0709 530.5,14.5C 528.579,13.359 526.579,13.1923 524.5,14C 525.728,14.779 526.728,15.779 527.5,17C 525.621,18.9973 525.288,21.164 526.5,23.5C 527.333,22.5 528.167,21.5 529,20.5C 530.443,25.3684 532.61,25.7018 535.5,21.5C 541.319,20.8332 546.986,20.1665 552.5,19.5C 555.024,19.957 557.691,19.957 560.5,19.5C 560.215,21.288 560.548,22.9547 561.5,24.5C 564.167,25.1667 565.833,26.8333 566.5,29.5C 563.907,31.0708 562.907,33.4041 563.5,36.5C 562.504,36.4142 561.671,36.7476 561,37.5C 560.536,40.6518 558.703,42.3185 555.5,42.5C 554.319,44.0672 552.653,44.9005 550.5,45C 553.833,45.3333 557.167,45.6667 560.5,46C 559.773,47.3988 559.273,48.8988 559,50.5C 558.667,50.1667 558.333,49.8333 558,49.5C 557.481,50.5156 556.647,51.1822 555.5,51.5C 552.103,49.4339 548.603,49.1005 545,50.5C 544.333,49.8333 543.667,49.1667 543,48.5C 541,49.8333 539,49.8333 537,48.5C 533.537,50.8243 529.704,51.8243 525.5,51.5C 525.238,52.9778 525.571,54.3112 526.5,55.5C 527.85,54.0499 529.516,53.3832 531.5,53.5C 531.281,54.675 531.614,55.675 532.5,56.5C 535.603,56.0769 538.436,55.0769 541,53.5C 543.213,54.8019 545.546,55.8019 548,56.5C 548.333,55.8333 548.667,55.1667 549,54.5C 551.499,55.0032 554.332,55.5032 557.5,56C 558.77,56.8996 559.77,58.0663 560.5,59.5C 561.417,58.8728 562.417,58.5394 563.5,58.5C 561.55,60.026 559.217,61.026 556.5,61.5C 556.137,62.1835 555.804,62.8501 555.5,63.5C 548.833,63.5 542.167,63.5 535.5,63.5C 530.331,63.5424 529.331,65.5424 532.5,69.5C 528.343,70.1865 527.009,68.6865 528.5,65C 528.022,62.7744 527.355,60.6077 526.5,58.5C 525.017,60.7459 523.017,61.5792 520.5,61C 521.676,59.3257 523.01,57.8257 524.5,56.5C 522.668,55.7515 521.001,54.7515 519.5,53.5C 519.702,57.9685 517.369,60.3018 512.5,60.5C 512.394,63.1085 511.228,65.1085 509,66.5C 508.501,70.1516 508.335,73.8183 508.5,77.5C 507.514,73.03 507.181,68.3633 507.5,63.5C 508.906,63.0269 509.573,62.0269 509.5,60.5C 511.5,59.1667 513.167,57.5 514.5,55.5C 516.985,54.7399 516.985,53.7399 514.5,52.5C 513.829,51.1529 513.829,49.9862 514.5,49C 513.429,48.1482 512.429,47.3149 511.5,46.5C 510.51,38.5228 510.343,30.5228 511,22.5C 513.861,17.8137 517.361,13.647 521.5,10C 526.01,7.70148 530.677,5.70148 535.5,4C 542.158,3.50042 548.825,3.33375 555.5,3.5 Z M 549.5,23.5 C 549.833,23.5 550.167,23.5 550.5,23.5C 551.93,24.5375 553.597,25.2041 555.5,25.5C 557.217,27.7664 558.551,30.2664 559.5,33C 558.974,35.9626 557.641,38.4626 555.5,40.5C 549.6,42.6424 543.6,42.9758 537.5,41.5C 534.5,40.5 532.5,38.5 531.5,35.5C 531.207,32.2457 531.874,29.2457 533.5,26.5C 535.027,26.573 536.027,25.9063 536.5,24.5C 540.785,23.7051 545.119,23.3718 549.5,23.5 Z"/></g>
    <g><path style="opacity:0.31" fill="#bdd7eb" d="M 549.5,23.5 C 545.119,23.3718 540.785,23.7051 536.5,24.5C 538.634,22.9666 541.134,22.2999 544,22.5C 546.033,22.5056 547.866,22.8389 549.5,23.5 Z"/></g>
    <g><path style="opacity:0.271" fill="#c0d5e9" d="M 254.5,22.5 C 255.167,22.8333 255.833,23.1667 256.5,23.5C 256.5,24.5 256.5,25.5 256.5,26.5C 253.32,24.0429 249.653,23.0429 245.5,23.5C 241.122,23.6222 236.789,24.1222 232.5,25C 231.692,25.3076 231.025,25.8076 230.5,26.5C 231.795,29.3659 231.795,32.1993 230.5,35C 223.321,35.8213 216.321,35.6546 209.5,34.5C 209.833,34.5 210.167,34.5 210.5,34.5C 216.833,34.5 223.167,34.5 229.5,34.5C 229.5,32.8333 229.5,31.1667 229.5,29.5C 229.141,27.2341 229.808,25.4007 231.5,24C 239.105,22.6885 246.772,22.1885 254.5,22.5 Z"/></g>
    <g><path style="opacity:1" fill="#5a8fbe" d="M 276.5,21.5 C 277.302,22.9516 277.802,24.6183 278,26.5C 278.445,40.5255 278.779,54.5255 279,68.5C 277.991,66.9751 277.491,65.3084 277.5,63.5C 276.167,63.5 274.833,63.5 273.5,63.5C 273.813,66.2469 273.48,68.9135 272.5,71.5C 270.744,69.4457 270.41,67.279 271.5,65C 269.017,64.7128 266.35,64.0462 263.5,63C 259.773,61.0589 258.773,58.2256 260.5,54.5C 261.5,54.5 262.5,54.5 263.5,54.5C 263.719,53.325 263.386,52.325 262.5,51.5C 261.088,52.8064 259.421,53.6397 257.5,54C 249.479,54.1684 241.479,54.6684 233.5,55.5C 233.137,56.1835 232.804,56.8501 232.5,57.5C 230.824,58.1834 230.157,59.5168 230.5,61.5C 227.941,64.2435 227.941,66.9102 230.5,69.5C 230.611,70.1174 230.944,70.6174 231.5,71C 234.367,71.8007 237.034,71.6341 239.5,70.5C 240.833,70.5 242.167,70.5 243.5,70.5C 241.058,72.2258 238.391,73.7258 235.5,75C 236.833,77 238.5,78.6667 240.5,80C 239.874,80.7504 239.374,81.5838 239,82.5C 236.859,81.9251 234.359,81.5918 231.5,81.5C 231.75,78.786 231.917,76.1194 232,73.5C 230.667,72.8333 229.333,72.1667 228,71.5C 226.77,62.369 225.103,62.369 223,71.5C 221.625,69.0632 221.125,66.3965 221.5,63.5C 220.178,63.33 219.011,63.6634 218,64.5C 217.308,63.9747 216.808,63.3081 216.5,62.5C 218.992,58.5087 222.158,55.1753 226,52.5C 226.483,51.552 226.649,50.552 226.5,49.5C 222.194,49.3029 220.194,51.3029 220.5,55.5C 217.5,55.1667 216.167,56.5 216.5,59.5C 214.801,59.5271 213.467,60.1938 212.5,61.5C 212.123,59.742 211.456,58.0754 210.5,56.5C 212.635,53.0364 214.301,49.3698 215.5,45.5C 216.873,45.6567 218.207,45.49 219.5,45C 224.045,41.3939 229.045,38.8939 234.5,37.5C 234.833,37.5 235.167,37.5 235.5,37.5C 243.167,37.5 250.833,37.5 258.5,37.5C 259.08,33.351 258.414,29.6843 256.5,26.5C 256.5,25.5 256.5,24.5 256.5,23.5C 257.474,24.635 258.641,25.635 260,26.5C 260.667,30.1667 260.667,33.8333 260,37.5C 259.261,38.5742 258.261,39.2409 257,39.5C 249.871,38.3856 242.704,38.2189 235.5,39C 237.301,39.3173 237.634,39.984 236.5,41C 238.863,41.5885 239.863,43.0885 239.5,45.5C 237.396,45.7989 235.396,45.4656 233.5,44.5C 234.509,42.8154 234.009,41.4821 232,40.5C 228.855,40.9901 226.022,42.1567 223.5,44C 230.251,45.5769 236.085,47.7436 241,50.5C 245.832,49.9096 250.665,49.243 255.5,48.5C 256.902,47.1575 256.569,46.3242 254.5,46C 257.005,45.4897 258.505,43.9897 259,41.5C 261.587,40.3042 264.42,40.3042 267.5,41.5C 267.481,38.3407 268.648,35.674 271,33.5C 271.333,34.5 271.667,35.5 272,36.5C 272.273,33.6069 273.107,30.9403 274.5,28.5C 273.772,26.8453 273.605,25.1786 274,23.5C 276.157,27.1735 276.99,26.5068 276.5,21.5 Z M 256.5,58.5 C 253.5,60.8333 250.833,63.5 248.5,66.5C 245.457,67.8432 242.457,69.1766 239.5,70.5C 236.43,70.6323 233.43,70.299 230.5,69.5C 230.5,66.8333 230.5,64.1667 230.5,61.5C 231.872,60.4884 233.205,59.4884 234.5,58.5C 235.492,58.6716 236.158,58.3382 236.5,57.5C 242.811,56.5731 249.144,56.4065 255.5,57C 256.056,57.3826 256.389,57.8826 256.5,58.5 Z"/></g>
    <g><path style="opacity:1" fill="#5e91be" d="M 354.5,2.5 C 357.23,4.92594 360.563,6.25927 364.5,6.5C 364.389,7.11742 364.056,7.61742 363.5,8C 365.854,8.84712 368.188,9.68045 370.5,10.5C 370.5,11.1667 370.5,11.8333 370.5,12.5C 369.305,12.3225 368.138,11.9891 367,11.5C 364.708,12.9305 362.208,13.7639 359.5,14C 358.626,16.7918 358.626,19.6251 359.5,22.5C 357.402,19.8443 354.902,17.511 352,15.5C 352.177,9.17473 349.344,7.17473 343.5,9.5C 340.141,8.96149 336.807,8.29482 333.5,7.5C 331.618,8.53137 329.618,9.36471 327.5,10C 326.921,11.4253 326.921,13.092 327.5,15C 325.82,15.0343 324.32,15.201 323,15.5C 321.416,14.1387 319.582,13.472 317.5,13.5C 317.447,16.1403 316.78,18.6403 315.5,21C 315.935,24.063 316.768,24.2297 318,21.5C 319.539,22.5458 319.705,23.8791 318.5,25.5C 318.453,27.0004 319.119,28.0004 320.5,28.5C 321.967,27.3047 323.467,27.3047 325,28.5C 326.678,26.486 328.178,24.3193 329.5,22C 331.974,21.8871 333.974,20.8871 335.5,19C 340.736,17.661 346.07,17.161 351.5,17.5C 351.5,18.5 351.5,19.5 351.5,20.5C 354.659,20.5704 356.326,22.237 356.5,25.5C 355.833,25.5 355.167,25.5 354.5,25.5C 353.365,23.7868 351.698,23.1201 349.5,23.5C 343.61,22.176 337.61,22.3426 331.5,24C 331.833,24.3333 332.167,24.6667 332.5,25C 328.749,25.5824 327.082,27.7491 327.5,31.5C 326.962,33.1172 326.629,34.7839 326.5,36.5C 326.167,36.5 325.833,36.5 325.5,36.5C 324.596,35.791 324.263,34.791 324.5,33.5C 320.249,33.7091 317.583,31.7091 316.5,27.5C 313.587,29.901 313.921,31.2343 317.5,31.5C 317.5,33.8333 317.5,36.1667 317.5,38.5C 313.932,38.2407 312.599,36.2407 313.5,32.5C 312.167,32.5 310.833,32.5 309.5,32.5C 311.036,37.109 312.37,41.7757 313.5,46.5C 313.381,50.01 312.214,53.01 310,55.5C 309.333,58.1667 309.333,60.8333 310,63.5C 310.75,64.1258 311.584,64.6258 312.5,65C 311.167,66.3333 309.833,67.6667 308.5,69C 309.337,70.0113 309.67,71.1779 309.5,72.5C 311.5,72.8333 313.5,73.1667 315.5,73.5C 315.167,75.5 314.833,77.5 314.5,79.5C 314.167,79.5 313.833,79.5 313.5,79.5C 313.573,77.9731 312.906,76.9731 311.5,76.5C 309.674,74.8525 308.34,72.8525 307.5,70.5C 307.371,68.7839 307.038,67.1172 306.5,65.5C 305.137,59.2676 304.47,52.9343 304.5,46.5C 304.47,39.9845 305.136,33.6512 306.5,27.5C 309.564,23.9186 312.064,19.9186 314,15.5C 316.372,13.2968 318.539,10.9635 320.5,8.5C 324.372,7.89753 327.705,6.23087 330.5,3.5C 338.423,1.31912 346.423,0.985788 354.5,2.5 Z"/></g>
    <g><path style="opacity:1" fill="#8caece" d="M 349.5,23.5 C 341.493,22.2787 334.826,24.612 329.5,30.5C 328.833,30.8333 328.167,31.1667 327.5,31.5C 327.082,27.7491 328.749,25.5824 332.5,25C 332.167,24.6667 331.833,24.3333 331.5,24C 337.61,22.3426 343.61,22.176 349.5,23.5 Z"/></g>
    <g><path style="opacity:0.671" fill="#adc8da" d="M 550.5,23.5 C 552.698,23.1201 554.365,23.7868 555.5,25.5C 553.597,25.2041 551.93,24.5375 550.5,23.5 Z"/></g>
    <g><path style="opacity:0.502" fill="#c1c3cd" d="M 119.5,19.5 C 119.5,20.1667 119.5,20.8333 119.5,21.5C 119.5,22.1667 119.5,22.8333 119.5,23.5C 118.833,24.1667 118.167,24.8333 117.5,25.5C 117.259,23.1016 117.926,21.1016 119.5,19.5 Z"/></g>
    <g><path style="opacity:0.969" fill="#b8d4e9" d="M 376.5,18.5 C 380.63,23.697 383.13,29.697 384,36.5C 384.82,43.0137 384.653,49.3471 383.5,55.5C 383.819,50.6367 383.486,45.97 382.5,41.5C 382.664,38.8127 382.497,36.146 382,33.5C 380.127,28.4393 378.294,23.4393 376.5,18.5 Z"/></g>
    <g><path style="opacity:0.047" fill="#d7f1f9" d="M 481.5,19.5 C 482.768,21.9052 483.435,24.5718 483.5,27.5C 481.96,25.1617 481.294,22.4951 481.5,19.5 Z"/></g>
    <g><path style="opacity:0.004" fill="#e0eefa" d="M 536.5,24.5 C 536.027,25.9063 535.027,26.573 533.5,26.5C 533.973,25.0937 534.973,24.427 536.5,24.5 Z"/></g>
    <g><path style="opacity:0.984" fill="#a9cadd" d="M 142.5,26.5 C 140.874,29.2457 140.207,32.2457 140.5,35.5C 140.167,35.5 139.833,35.5 139.5,35.5C 139.5,32.5 139.5,29.5 139.5,26.5C 140.5,26.5 141.5,26.5 142.5,26.5 Z"/></g>
    <g><path style="opacity:0.996" fill="#afbed6" d="M 164.5,25.5 C 165.833,25.8333 167.167,26.1667 168.5,26.5C 168.5,27.5 168.5,28.5 168.5,29.5C 169.777,32.2053 169.61,34.872 168,37.5C 167.578,39.4257 166.411,40.4257 164.5,40.5C 166.217,38.2336 167.551,35.7336 168.5,33C 167.551,30.2664 166.217,27.7664 164.5,25.5 Z"/></g>
    <g><path style="opacity:0.984" fill="#a5c8de" d="M 533.5,26.5 C 531.874,29.2457 531.207,32.2457 531.5,35.5C 530.566,34.4324 530.232,33.099 530.5,31.5C 530.5,29.8333 530.5,28.1667 530.5,26.5C 531.5,26.5 532.5,26.5 533.5,26.5 Z"/></g>
    <g><path style="opacity:0.577" fill="#b7c2d6" d="M 69.5,22.5 C 69.8333,22.5 70.1667,22.5 70.5,22.5C 70.6666,35.1711 70.4999,47.8377 70,60.5C 69.6174,61.056 69.1174,61.3893 68.5,61.5C 68.2051,48.7836 68.5385,36.117 69.5,23.5C 69.5,23.1667 69.5,22.8333 69.5,22.5 Z"/></g>
    <g><path style="opacity:1" fill="#5a8fbf" d="M 273.5,12.5 C 274.873,15.3428 275.873,18.3428 276.5,21.5C 276.99,26.5068 276.157,27.1735 274,23.5C 273.605,25.1786 273.772,26.8453 274.5,28.5C 273.107,30.9403 272.273,33.6069 272,36.5C 271.667,35.5 271.333,34.5 271,33.5C 268.648,35.674 267.481,38.3407 267.5,41.5C 264.42,40.3042 261.587,40.3042 259,41.5C 258.505,43.9897 257.005,45.4897 254.5,46C 256.569,46.3242 256.902,47.1575 255.5,48.5C 250.665,49.243 245.832,49.9096 241,50.5C 236.085,47.7436 230.251,45.5769 223.5,44C 226.022,42.1567 228.855,40.9901 232,40.5C 234.009,41.4821 234.509,42.8154 233.5,44.5C 235.396,45.4656 237.396,45.7989 239.5,45.5C 239.863,43.0885 238.863,41.5885 236.5,41C 237.634,39.984 237.301,39.3173 235.5,39C 242.704,38.2189 249.871,38.3856 257,39.5C 258.261,39.2409 259.261,38.5742 260,37.5C 260.667,33.8333 260.667,30.1667 260,26.5C 258.641,25.635 257.474,24.635 256.5,23.5C 255.833,23.1667 255.167,22.8333 254.5,22.5C 249.174,21.9515 243.841,21.1182 238.5,20C 239.354,18.9783 240.354,18.1449 241.5,17.5C 246.272,19.5541 250.938,19.0541 255.5,16C 250.565,15.5967 245.565,15.43 240.5,15.5C 243.299,14.9959 245.799,13.9959 248,12.5C 248.667,15.1667 249.333,15.1667 250,12.5C 251,12.8333 252,13.1667 253,13.5C 254.295,11.8783 255.795,10.545 257.5,9.5C 259.588,11.8885 262.255,13.5552 265.5,14.5C 263.034,15.1235 260.701,15.9568 258.5,17C 259.274,18.843 260.774,20.6763 263,22.5C 263.249,21.376 263.749,20.376 264.5,19.5C 266.322,19.4626 268.322,19.796 270.5,20.5C 270.67,19.1779 270.337,18.0113 269.5,17C 270.357,16.3109 271.023,15.4776 271.5,14.5C 269.726,13.8133 268.059,12.9799 266.5,12C 267.108,11.1301 267.941,10.6301 269,10.5C 270.406,11.4138 271.906,12.0805 273.5,12.5 Z"/></g>
    <g><path style="opacity:1" fill="#7d9ab8" d="M 354.5,25.5 C 355.167,25.5 355.833,25.5 356.5,25.5C 357.622,26.9473 359.122,27.9473 361,28.5C 361.436,30.8474 361.936,33.1807 362.5,35.5C 362.457,36.4164 362.124,37.0831 361.5,37.5C 361.167,37.5 360.833,37.5 360.5,37.5C 360.662,35.4727 360.495,33.4727 360,31.5C 359.617,30.944 359.117,30.6107 358.5,30.5C 357.197,28.8577 355.864,27.1911 354.5,25.5 Z"/></g>
    <g><path style="opacity:1" fill="#769fc4" d="M 438.5,26.5 C 437.101,27.8897 435.434,28.8897 433.5,29.5C 431.973,29.427 430.973,30.0937 430.5,31.5C 430.5,32.1667 430.167,32.5 429.5,32.5C 428.833,32.5 428.167,32.5 427.5,32.5C 427.5,31.1667 427.5,29.8333 427.5,28.5C 430.715,28.5948 433.549,27.5948 436,25.5C 436.902,25.7432 437.735,26.0766 438.5,26.5 Z"/></g>
    <g><path style="opacity:0.008" fill="#dcebf6" d="M 433.5,29.5 C 433.027,30.9063 432.027,31.573 430.5,31.5C 430.973,30.0937 431.973,29.427 433.5,29.5 Z"/></g>
    <g><path style="opacity:0.557" fill="#c3c6d3" d="M 117.5,25.5 C 117.5,30.5 117.5,35.5 117.5,40.5C 116.683,38.1691 116.016,35.6691 115.5,33C 116.016,30.3309 116.683,27.8309 117.5,25.5 Z"/></g>
    <g><path style="opacity:1" fill="#6e8db2" d="M 119.5,23.5 C 118.167,30.1667 118.167,36.8333 119.5,43.5C 118.833,42.8333 118.167,42.1667 117.5,41.5C 117.5,41.1667 117.5,40.8333 117.5,40.5C 117.5,35.5 117.5,30.5 117.5,25.5C 118.167,24.8333 118.833,24.1667 119.5,23.5 Z"/></g>
    <g><path style="opacity:1" fill="#5c90be" d="M 147.5,43.5 C 148.5,43.5 149.5,43.5 150.5,43.5C 157.45,45.8235 163.617,44.4902 169,39.5C 169.21,37.9419 169.71,36.6085 170.5,35.5C 172.72,39.0467 173.72,43.0467 173.5,47.5C 174.675,47.281 175.675,47.6143 176.5,48.5C 175.147,49.5237 174.48,50.857 174.5,52.5C 173.07,52.5792 171.736,52.2458 170.5,51.5C 169.618,52.7598 168.618,53.9264 167.5,55C 167.833,55.3333 168.167,55.6667 168.5,56C 165.607,57.1488 162.607,57.6488 159.5,57.5C 159.5,58.5 159.5,59.5 159.5,60.5C 163.154,60.0578 166.821,59.7244 170.5,59.5C 161.852,62.2101 152.852,63.2101 143.5,62.5C 141.076,62.1924 138.743,62.5258 136.5,63.5C 137.154,65.1151 137.654,66.7818 138,68.5C 138.671,69.2524 139.504,69.5858 140.5,69.5C 140.833,69.5 141.167,69.5 141.5,69.5C 141.611,70.1174 141.944,70.6174 142.5,71C 145.482,71.498 148.482,71.6646 151.5,71.5C 154.385,71.1936 157.052,71.5269 159.5,72.5C 165.28,74.0431 171.28,75.0431 177.5,75.5C 179.214,76.7384 181.214,77.405 183.5,77.5C 186.674,78.0102 189.008,79.6769 190.5,82.5C 189.883,82.6107 189.383,82.944 189,83.5C 187.535,81.085 185.368,80.085 182.5,80.5C 182.852,83.0728 182.352,85.4062 181,87.5C 180.124,85.2418 178.957,83.2418 177.5,81.5C 177.953,80.5416 178.619,79.7083 179.5,79C 178.167,78.3333 176.833,77.6667 175.5,77C 167.8,75.8828 160.134,75.7162 152.5,76.5C 150.146,75.9399 147.813,75.2733 145.5,74.5C 146.729,73.7189 148.062,73.2189 149.5,73C 144.859,73.2017 140.693,72.035 137,69.5C 137.149,64.5177 134.982,62.8511 130.5,64.5C 130.709,65.086 131.043,65.586 131.5,66C 130.773,67.3988 130.273,68.8988 130,70.5C 129.167,69 128,67.8333 126.5,67C 127.147,65.3905 127.98,63.8905 129,62.5C 129.34,57.3803 130.174,52.3803 131.5,47.5C 129.408,47.5614 127.908,48.5614 127,50.5C 126.68,53.5399 126.68,56.5399 127,59.5C 126.085,58.6721 125.419,57.6721 125,56.5C 122.963,58.7059 120.797,60.7059 118.5,62.5C 118.5,61.8333 118.5,61.1667 118.5,60.5C 120.5,59.1667 122.167,57.5 123.5,55.5C 124.471,54.0379 124.138,52.7046 122.5,51.5C 121.829,50.1529 121.829,48.9862 122.5,48C 121.473,47.4867 120.473,46.9867 119.5,46.5C 119.5,45.5 119.5,44.5 119.5,43.5C 118.167,36.8333 118.167,30.1667 119.5,23.5C 119.5,22.8333 119.5,22.1667 119.5,21.5C 121.113,21.0557 122.28,20.0557 123,18.5C 123.667,21.1667 124.333,23.8333 125,26.5C 126.395,25.1854 127.395,25.5188 128,27.5C 130.343,25.6558 132.51,23.6558 134.5,21.5C 136.003,23.5858 137.336,25.7525 138.5,28C 137.358,32.5375 137.691,37.0375 139.5,41.5C 141.851,43.2289 144.518,43.8956 147.5,43.5 Z"/></g>
    <g><path style="opacity:0.284" fill="#c5e3fc" d="M 278.5,17.5 C 279.6,19.2774 280.434,21.2774 281,23.5C 281.5,39.4965 281.667,55.4965 281.5,71.5C 280.669,56.0054 280.169,40.3387 280,24.5C 279.023,22.26 278.523,19.9267 278.5,17.5 Z"/></g>
    <g><path style="opacity:0.531" fill="#c8cbdb" d="M 509.5,22.5 C 507.936,30.5986 508.27,38.5986 510.5,46.5C 508.208,42.4063 506.874,37.9063 506.5,33C 506.907,29.1947 507.907,25.6947 509.5,22.5 Z"/></g>
    <g><path style="opacity:0.412" fill="#b7c5da" d="M 555.5,25.5 C 556.496,25.4142 557.329,25.7476 558,26.5C 560.635,30.3508 560.969,34.3508 559,38.5C 558.184,39.8228 557.017,40.4894 555.5,40.5C 557.641,38.4626 558.974,35.9626 559.5,33C 558.551,30.2664 557.217,27.7664 555.5,25.5 Z"/></g>
    <g><path style="opacity:0.345" fill="#c5cade" d="M 305.5,27.5 C 305.829,30.2282 305.163,32.5615 303.5,34.5C 303.41,31.8478 304.076,29.5145 305.5,27.5 Z"/></g>
    <g><path style="opacity:0.184" fill="#d5ecf8" d="M 329.5,30.5 C 328.545,32.7457 327.878,35.079 327.5,37.5C 326.833,37.5 326.5,37.1667 326.5,36.5C 326.629,34.7839 326.962,33.1172 327.5,31.5C 328.167,31.1667 328.833,30.8333 329.5,30.5 Z"/></g>
    <g><path style="opacity:0.016" fill="#e3e9ee" d="M 358.5,30.5 C 359.117,30.6107 359.617,30.944 360,31.5C 360.495,33.4727 360.662,35.4727 360.5,37.5C 360.167,37.5 359.833,37.5 359.5,37.5C 359.552,35.0971 359.219,32.7638 358.5,30.5 Z"/></g>
    <g><path style="opacity:0.129" fill="#d9e0ea" d="M 0.5,21.5 C 0.833333,21.5 1.16667,21.5 1.5,21.5C 5.83333,21.5 10.1667,21.5 14.5,21.5C 14.5,36.1667 14.5,50.8333 14.5,65.5C 13.8333,51.3277 13.1667,36.9943 12.5,22.5C 11.914,22.7093 11.414,23.0426 11,23.5C 7.39733,22.8648 3.89733,22.1982 0.5,21.5 Z"/></g>
    <g><path style="opacity:0.49" fill="#b2c5d7" d="M 256.5,26.5 C 258.414,29.6843 259.08,33.351 258.5,37.5C 250.833,37.5 243.167,37.5 235.5,37.5C 242.648,36.5084 249.981,36.175 257.5,36.5C 257.747,33.0613 257.414,29.728 256.5,26.5 Z"/></g>
    <g><path style="opacity:0.615" fill="#92adca" d="M 325.5,36.5 C 325.833,36.5 326.167,36.5 326.5,36.5C 326.5,37.1667 326.833,37.5 327.5,37.5C 338.167,37.5 348.833,37.5 359.5,37.5C 359.833,37.5 360.167,37.5 360.5,37.5C 348.833,38.8333 337.167,38.8333 325.5,37.5C 325.5,37.1667 325.5,36.8333 325.5,36.5 Z"/></g>
    <g><path style="opacity:1" fill="#95b4cf" d="M 139.5,35.5 C 139.833,35.5 140.167,35.5 140.5,35.5C 141.473,38.135 143.14,40.135 145.5,41.5C 145.5,41.8333 145.5,42.1667 145.5,42.5C 143.362,42.297 141.695,41.297 140.5,39.5C 139.571,38.3112 139.238,36.9778 139.5,35.5 Z"/></g>
    <g><path style="opacity:1" fill="#84a8c8" d="M 530.5,31.5 C 530.232,33.099 530.566,34.4324 531.5,35.5C 532.5,38.5 534.5,40.5 537.5,41.5C 537.5,41.8333 537.5,42.1667 537.5,42.5C 530.335,41.8276 528.001,38.161 530.5,31.5 Z"/></g>
    <g><path style="opacity:1" fill="#5a90bd" d="M 325.5,55.5 C 325.018,58.8306 326.018,61.4973 328.5,63.5C 328.5,65.5 329.5,66.5 331.5,66.5C 332.252,68.1003 333.252,69.6003 334.5,71C 342.195,71.6912 349.861,71.5246 357.5,70.5C 356.402,71.397 356.402,72.2303 357.5,73C 361.179,73.2814 364.512,74.4481 367.5,76.5C 365.922,77.2978 364.256,77.7978 362.5,78C 365.482,78.9153 368.148,80.4153 370.5,82.5C 370,82.8333 369.5,83.1667 369,83.5C 363.719,82.1002 358.386,80.7668 353,79.5C 352.667,79.8333 352.333,80.1667 352,80.5C 349.429,78.6473 346.762,76.9806 344,75.5C 342.68,75.799 341.18,75.9657 339.5,76C 339.833,76.3333 340.167,76.6667 340.5,77C 338.041,78.9705 335.541,80.8038 333,82.5C 331.354,80.9452 331.021,79.2785 332,77.5C 328.738,76.313 325.738,74.6464 323,72.5C 322.833,72.1667 322.667,71.8333 322.5,71.5C 323.689,70.5713 325.022,70.238 326.5,70.5C 326.67,69.1779 326.337,68.0113 325.5,67C 323.217,66.7088 321.05,67.2088 319,68.5C 317.124,67.381 316.291,65.7144 316.5,63.5C 315.5,63.5 314.5,63.5 313.5,63.5C 312.452,57.809 314.118,53.1424 318.5,49.5C 317.444,45.5292 317.444,41.5292 318.5,37.5C 320.833,37.5 323.167,37.5 325.5,37.5C 337.167,38.8333 348.833,38.8333 360.5,37.5C 360.833,37.5 361.167,37.5 361.5,37.5C 361.5,38.8333 361.5,40.1667 361.5,41.5C 362.833,41.5 364.167,41.5 365.5,41.5C 365.187,38.7531 365.52,36.0865 366.5,33.5C 367.655,36.4459 367.821,39.4459 367,42.5C 366.261,43.5742 365.261,44.2409 364,44.5C 362.85,43.5761 361.85,43.5761 361,44.5C 360.473,41.7724 358.806,40.439 356,40.5C 352.184,41.0198 348.351,41.3531 344.5,41.5C 340.412,40.989 336.412,40.489 332.5,40C 332.043,40.414 331.709,40.914 331.5,41.5C 338.254,43.9072 337.92,45.7405 330.5,47C 329.62,48.3561 329.286,49.8561 329.5,51.5C 327.255,49.6386 324.588,48.6386 321.5,48.5C 321.799,50.604 321.466,52.604 320.5,54.5C 319.833,54.1667 319.167,53.8333 318.5,53.5C 317.167,56.8333 317.167,60.1667 318.5,63.5C 319.429,62.3112 319.762,60.9778 319.5,59.5C 320.833,59.5 322.167,59.5 323.5,59.5C 323.157,57.5168 323.824,56.1834 325.5,55.5 Z"/></g>
    <g><path style="opacity:0.952" fill="#6f90b4" d="M 447.5,22.5 C 457.514,20.0234 462.514,24.0234 462.5,34.5C 462.5,49.5 462.5,64.5 462.5,79.5C 461.669,63.6719 461.169,47.6719 461,31.5C 460.768,30.2625 460.268,29.2625 459.5,28.5C 458.135,26.1402 456.135,24.4735 453.5,23.5C 451.735,22.5386 449.735,22.2053 447.5,22.5 Z"/></g>
    <g><path style="opacity:0.181" fill="#cddeef" d="M 145.5,42.5 C 145.5,42.1667 145.5,41.8333 145.5,41.5C 151.167,42.8333 156.833,42.8333 162.5,41.5C 162.082,42.2216 161.416,42.7216 160.5,43C 157.183,43.4983 153.85,43.665 150.5,43.5C 149.5,43.5 148.5,43.5 147.5,43.5C 147.158,42.6618 146.492,42.3284 145.5,42.5 Z"/></g>
    <g><path style="opacity:1" fill="#91aac3" d="M 234.5,37.5 C 229.045,38.8939 224.045,41.3939 219.5,45C 218.207,45.49 216.873,45.6567 215.5,45.5C 220.759,40.5179 227.092,37.8512 234.5,37.5 Z"/></g>
    <g><path style="opacity:0.18" fill="#cddae9" d="M 555.5,40.5 C 555.5,41.1667 555.5,41.8333 555.5,42.5C 549.448,43.6874 543.448,43.6874 537.5,42.5C 537.5,42.1667 537.5,41.8333 537.5,41.5C 543.6,42.9758 549.6,42.6424 555.5,40.5 Z"/></g>
    <g><path style="opacity:1" fill="#7191b2" d="M 168.5,29.5 C 170.28,30.9899 170.946,32.9899 170.5,35.5C 169.71,36.6085 169.21,37.9419 169,39.5C 163.617,44.4902 157.45,45.8235 150.5,43.5C 153.85,43.665 157.183,43.4983 160.5,43C 161.416,42.7216 162.082,42.2216 162.5,41.5C 162.842,40.6618 163.508,40.3284 164.5,40.5C 166.411,40.4257 167.578,39.4257 168,37.5C 169.61,34.872 169.777,32.2053 168.5,29.5 Z"/></g>
    <g><path style="opacity:0.263" fill="#c9cbdb" d="M 117.5,41.5 C 118.167,42.1667 118.833,42.8333 119.5,43.5C 119.5,44.5 119.5,45.5 119.5,46.5C 118.069,45.2196 117.402,43.5529 117.5,41.5 Z"/></g>
    <g><path style="opacity:1" fill="#598fbf" d="M 359.5,22.5 C 363.001,24.5057 365.167,27.5057 366,31.5C 366.741,32.6405 367.575,32.6405 368.5,31.5C 368.833,32.1667 369.167,32.8333 369.5,33.5C 369.024,36.7395 369.024,40.0729 369.5,43.5C 371.492,43.3285 373.158,43.9951 374.5,45.5C 375.192,44.9747 375.692,44.3081 376,43.5C 376.49,44.7932 376.657,46.1266 376.5,47.5C 373.813,47.3359 371.146,47.5026 368.5,48C 366.487,49.7913 366.487,51.1247 368.5,52C 367.244,52.4169 366.577,53.2502 366.5,54.5C 352.656,54.171 338.99,54.5043 325.5,55.5C 323.824,56.1834 323.157,57.5168 323.5,59.5C 322.167,59.5 320.833,59.5 319.5,59.5C 319.762,60.9778 319.429,62.3112 318.5,63.5C 317.167,60.1667 317.167,56.8333 318.5,53.5C 319.167,53.8333 319.833,54.1667 320.5,54.5C 321.466,52.604 321.799,50.604 321.5,48.5C 324.588,48.6386 327.255,49.6386 329.5,51.5C 329.286,49.8561 329.62,48.3561 330.5,47C 337.92,45.7405 338.254,43.9072 331.5,41.5C 331.709,40.914 332.043,40.414 332.5,40C 336.412,40.489 340.412,40.989 344.5,41.5C 348.351,41.3531 352.184,41.0198 356,40.5C 358.806,40.439 360.473,41.7724 361,44.5C 361.85,43.5761 362.85,43.5761 364,44.5C 365.261,44.2409 366.261,43.5742 367,42.5C 367.821,39.4459 367.655,36.4459 366.5,33.5C 365.52,36.0865 365.187,38.7531 365.5,41.5C 364.167,41.5 362.833,41.5 361.5,41.5C 361.5,40.1667 361.5,38.8333 361.5,37.5C 362.124,37.0831 362.457,36.4164 362.5,35.5C 361.936,33.1807 361.436,30.8474 361,28.5C 359.122,27.9473 357.622,26.9473 356.5,25.5C 356.326,22.237 354.659,20.5704 351.5,20.5C 351.5,19.5 351.5,18.5 351.5,17.5C 346.07,17.161 340.736,17.661 335.5,19C 333.974,20.8871 331.974,21.8871 329.5,22C 328.178,24.3193 326.678,26.486 325,28.5C 323.467,27.3047 321.967,27.3047 320.5,28.5C 319.119,28.0004 318.453,27.0004 318.5,25.5C 319.705,23.8791 319.539,22.5458 318,21.5C 316.768,24.2297 315.935,24.063 315.5,21C 316.78,18.6403 317.447,16.1403 317.5,13.5C 319.582,13.472 321.416,14.1387 323,15.5C 324.32,15.201 325.82,15.0343 327.5,15C 326.921,13.092 326.921,11.4253 327.5,10C 329.618,9.36471 331.618,8.53137 333.5,7.5C 336.807,8.29482 340.141,8.96149 343.5,9.5C 349.344,7.17473 352.177,9.17473 352,15.5C 354.902,17.511 357.402,19.8443 359.5,22.5 Z"/></g>
    <g><path style="opacity:0.722" fill="#b4c7d7" d="M 349.5,23.5 C 351.698,23.1201 353.365,23.7868 354.5,25.5C 352.597,25.2041 350.93,24.5375 349.5,23.5 Z"/></g>
    <g><path style="opacity:1" fill="#5a8fbf" d="M 427.5,28.5 C 427.5,29.8333 427.5,31.1667 427.5,32.5C 427.5,45.5 427.5,58.5 427.5,71.5C 432.5,71.5 437.5,71.5 442.5,71.5C 442.5,77.1667 442.5,82.8333 442.5,88.5C 426.5,88.5 410.5,88.5 394.5,88.5C 394.5,83.5 394.5,78.5 394.5,73.5C 397.909,73.2493 401.242,73.5827 404.5,74.5C 405.386,73.675 405.719,72.675 405.5,71.5C 405.5,71.1667 405.5,70.8333 405.5,70.5C 406.496,55.0089 406.83,39.3422 406.5,23.5C 407.822,23.67 408.989,23.3366 410,22.5C 410.334,20.1527 410.167,17.8194 409.5,15.5C 410.833,15.5 412.167,15.5 413.5,15.5C 413.5,18.1667 413.5,20.8333 413.5,23.5C 412.178,23.33 411.011,23.6634 410,24.5C 408.128,41.488 408.128,58.488 410,75.5C 411.182,71.9504 412.182,68.2837 413,64.5C 413.333,52.5 413.667,40.5 414,28.5C 415.333,29.8333 416.667,31.1667 418,32.5C 417.018,43.2678 416.185,54.1012 415.5,65C 415.613,66.2798 416.28,67.1131 417.5,67.5C 417.749,66.4179 417.915,65.0846 418,63.5C 418.333,63.8333 418.667,64.1667 419,64.5C 419.17,58.8042 419.67,53.1376 420.5,47.5C 421.991,46.6519 422.658,45.3186 422.5,43.5C 419.763,36.7453 421.429,31.7453 427.5,28.5 Z"/></g>
    <g><path style="opacity:1" fill="#a8b5d5" d="M 119.5,46.5 C 120.473,46.9867 121.473,47.4867 122.5,48C 121.829,48.9862 121.829,50.1529 122.5,51.5C 120.75,50.3406 119.75,48.674 119.5,46.5 Z"/></g>
    <g><path style="opacity:0.994" fill="#6e8db1" d="M 305.5,27.5 C 305.833,27.5 306.167,27.5 306.5,27.5C 305.136,33.6512 304.47,39.9845 304.5,46.5C 304.47,52.9343 305.137,59.2676 306.5,65.5C 306.167,65.5 305.833,65.5 305.5,65.5C 305.59,62.8478 304.924,60.5145 303.5,58.5C 303.5,50.5 303.5,42.5 303.5,34.5C 305.163,32.5615 305.829,30.2282 305.5,27.5 Z"/></g>
    <g><path style="opacity:0.508" fill="#c1d9ed" d="M 427.5,32.5 C 428.167,32.5 428.833,32.5 429.5,32.5C 429.622,44.763 429.455,57.0963 429,69.5C 434,70.1667 439,70.8333 444,71.5C 444.819,77.6812 444.653,83.6812 443.5,89.5C 443.167,89.5 442.833,89.5 442.5,89.5C 442.5,89.1667 442.5,88.8333 442.5,88.5C 442.5,82.8333 442.5,77.1667 442.5,71.5C 437.5,71.5 432.5,71.5 427.5,71.5C 427.5,58.5 427.5,45.5 427.5,32.5 Z"/></g>
    <g><path style="opacity:1" fill="#a7b4cb" d="M 510.5,46.5 C 510.833,46.5 511.167,46.5 511.5,46.5C 512.429,47.3149 513.429,48.1482 514.5,49C 513.829,49.9862 513.829,51.1529 514.5,52.5C 512.178,51.1979 510.845,49.1979 510.5,46.5 Z"/></g>
    <g><path style="opacity:1" fill="#8ab0d0" d="M 579.5,46.5 C 579.155,49.1979 577.822,51.1979 575.5,52.5C 575.5,50.5 575.5,48.5 575.5,46.5C 576.833,46.5 578.167,46.5 579.5,46.5 Z"/></g>
    <g><path style="opacity:0.486" fill="#c7cbd5" d="M 303.5,34.5 C 303.5,42.5 303.5,50.5 303.5,58.5C 300.893,50.5054 300.893,42.5054 303.5,34.5 Z"/></g>
    <g><path style="opacity:1" fill="#598fc0" d="M 568.5,56.5 C 566.486,56.3915 564.82,57.0582 563.5,58.5C 562.417,58.5394 561.417,58.8728 560.5,59.5C 559.77,58.0663 558.77,56.8996 557.5,56C 554.332,55.5032 551.499,55.0032 549,54.5C 548.667,55.1667 548.333,55.8333 548,56.5C 545.546,55.8019 543.213,54.8019 541,53.5C 538.436,55.0769 535.603,56.0769 532.5,56.5C 531.614,55.675 531.281,54.675 531.5,53.5C 529.516,53.3832 527.85,54.0499 526.5,55.5C 525.571,54.3112 525.238,52.9778 525.5,51.5C 529.704,51.8243 533.537,50.8243 537,48.5C 539,49.8333 541,49.8333 543,48.5C 543.667,49.1667 544.333,49.8333 545,50.5C 548.603,49.1005 552.103,49.4339 555.5,51.5C 556.647,51.1822 557.481,50.5156 558,49.5C 558.333,49.8333 558.667,50.1667 559,50.5C 559.273,48.8988 559.773,47.3988 560.5,46C 557.167,45.6667 553.833,45.3333 550.5,45C 552.653,44.9005 554.319,44.0672 555.5,42.5C 558.703,42.3185 560.536,40.6518 561,37.5C 561.671,36.7476 562.504,36.4142 563.5,36.5C 564.117,36.6107 564.617,36.944 565,37.5C 567.387,35.6452 569.054,33.3118 570,30.5C 571.011,31.3366 572.178,31.67 573.5,31.5C 573.312,35.0641 572.312,38.3974 570.5,41.5C 568.308,42.8587 566.641,44.6921 565.5,47C 564.207,47.49 562.873,47.6567 561.5,47.5C 561.034,49.2012 561.034,50.7012 561.5,52C 559.128,53.4705 559.128,54.6372 561.5,55.5C 563.577,54.0629 565.91,53.3962 568.5,53.5C 568.5,54.5 568.5,55.5 568.5,56.5 Z"/></g>
    <g><path style="opacity:0.02" fill="#dbeff9" d="M 187.5,48.5 C 187.573,50.0269 186.906,51.0269 185.5,51.5C 185.427,49.9731 186.094,48.9731 187.5,48.5 Z"/></g>
    <g><path style="opacity:0.31" fill="#c9d2de" d="M 212.5,48.5 C 212.573,50.0269 211.906,51.0269 210.5,51.5C 210.427,49.9731 211.094,48.9731 212.5,48.5 Z"/></g>
    <g><path style="opacity:0.306" fill="#c5c7d5" d="M 459.5,28.5 C 460.268,29.2625 460.768,30.2625 461,31.5C 461.169,47.6719 461.669,63.6719 462.5,79.5C 462.629,81.2161 462.962,82.8828 463.5,84.5C 462.034,83.653 461.2,82.3197 461,80.5C 460.729,63.1521 460.229,45.8188 459.5,28.5 Z"/></g>
    <g><path style="opacity:1" fill="#81a5c6" d="M 190.5,37.5 C 190.5,38.8333 190.5,40.1667 190.5,41.5C 190.293,44.2406 189.293,46.5739 187.5,48.5C 186.094,48.9731 185.427,49.9731 185.5,51.5C 185.5,52.1667 185.167,52.5 184.5,52.5C 183.167,53.1667 182.167,54.1667 181.5,55.5C 181.5,56.1667 181.167,56.5 180.5,56.5C 179.167,56.5 177.833,56.5 176.5,56.5C 176.5,57.5 176.5,58.5 176.5,59.5C 166.029,64.9477 155.029,66.281 143.5,63.5C 143.5,63.1667 143.5,62.8333 143.5,62.5C 152.852,63.2101 161.852,62.2101 170.5,59.5C 172.042,58.8365 173.709,58.1698 175.5,57.5C 175.291,56.914 174.957,56.414 174.5,56C 176.398,55.1004 178.064,53.9337 179.5,52.5C 180.689,51.5713 182.022,51.238 183.5,51.5C 181.516,48.139 182.516,46.4723 186.5,46.5C 186.963,43.5176 187.296,40.5176 187.5,37.5C 188.5,37.5 189.5,37.5 190.5,37.5 Z"/></g>
    <g><path style="opacity:0.224" fill="#cfd5e1" d="M 210.5,51.5 C 210.573,53.0269 209.906,54.0269 208.5,54.5C 208.427,52.9731 209.094,51.9731 210.5,51.5 Z"/></g>
    <g><path style="opacity:0.004" fill="#e7f1fb" d="M 184.5,52.5 C 184.5,54.5 183.5,55.5 181.5,55.5C 182.167,54.1667 183.167,53.1667 184.5,52.5 Z"/></g>
    <g><path style="opacity:0.886" fill="#7095b9" d="M 382.5,41.5 C 383.486,45.97 383.819,50.6367 383.5,55.5C 364.167,55.5 344.833,55.5 325.5,55.5C 338.99,54.5043 352.656,54.171 366.5,54.5C 371.833,54.5 377.167,54.5 382.5,54.5C 382.5,50.1667 382.5,45.8333 382.5,41.5 Z"/></g>
    <g><path style="opacity:0.518" fill="#bccde3" d="M 514.5,52.5 C 516.985,53.7399 516.985,54.7399 514.5,55.5C 514.5,54.5 514.5,53.5 514.5,52.5 Z"/></g>
    <g><path style="opacity:0.008" fill="#e5f0fa" d="M 575.5,52.5 C 575.5,54.5 574.5,55.5 572.5,55.5C 573.167,54.1667 574.167,53.1667 575.5,52.5 Z"/></g>
    <g><path style="opacity:0.147" fill="#dceaf7" d="M 325.5,55.5 C 344.833,55.5 364.167,55.5 383.5,55.5C 364.674,56.497 345.674,56.8303 326.5,56.5C 326.878,58.921 327.545,61.2543 328.5,63.5C 326.018,61.4973 325.018,58.8306 325.5,55.5 Z"/></g>
    <g><path style="opacity:0.973" fill="#9dbdd7" d="M 180.5,56.5 C 179.564,57.9744 178.23,58.9744 176.5,59.5C 176.5,58.5 176.5,57.5 176.5,56.5C 177.833,56.5 179.167,56.5 180.5,56.5 Z"/></g>
    <g><path style="opacity:0.349" fill="#cad4e2" d="M 514.5,55.5 C 513.167,57.5 511.5,59.1667 509.5,60.5C 510.167,57.8333 511.833,56.1667 514.5,55.5 Z"/></g>
    <g><path style="opacity:0.988" fill="#97b9d6" d="M 232.5,57.5 C 232.842,58.3382 233.508,58.6716 234.5,58.5C 233.205,59.4884 231.872,60.4884 230.5,61.5C 230.157,59.5168 230.824,58.1834 232.5,57.5 Z"/></g>
    <g><path style="opacity:0.38" fill="#c5d2e1" d="M 123.5,55.5 C 122.167,57.5 120.5,59.1667 118.5,60.5C 119.167,57.8333 120.833,56.1667 123.5,55.5 Z"/></g>
    <g><path style="opacity:0.271" fill="#cdcee2" d="M 303.5,58.5 C 304.924,60.5145 305.59,62.8478 305.5,65.5C 303.837,63.5615 303.171,61.2282 303.5,58.5 Z"/></g>
    <g><path style="opacity:1" fill="#6a91b7" d="M 215.5,45.5 C 214.301,49.3698 212.635,53.0364 210.5,56.5C 211.456,58.0754 212.123,59.742 212.5,61.5C 209.828,64.1785 208.495,67.5118 208.5,71.5C 209.734,76.2078 211.734,80.5411 214.5,84.5C 213.833,84.5 213.167,84.5 212.5,84.5C 211.026,83.5637 210.026,82.2303 209.5,80.5C 209.598,78.4471 208.931,76.7804 207.5,75.5C 207.326,68.4648 207.659,61.4648 208.5,54.5C 209.906,54.0269 210.573,53.0269 210.5,51.5C 211.906,51.0269 212.573,50.0269 212.5,48.5C 213.167,47.1667 214.167,46.1667 215.5,45.5 Z"/></g>
    <g><path style="opacity:1" fill="#8baac7" d="M 568.5,56.5 C 569.5,56.5 570.5,56.5 571.5,56.5C 567.113,60.7491 561.78,63.0824 555.5,63.5C 555.804,62.8501 556.137,62.1835 556.5,61.5C 559.217,61.026 561.55,60.026 563.5,58.5C 564.82,57.0582 566.486,56.3915 568.5,56.5 Z"/></g>
    <g><path style="opacity:0.553" fill="#c1c9da" d="M 68.5,61.5 C 68.0269,62.9063 67.0269,63.573 65.5,63.5C 65.9731,62.0937 66.9731,61.427 68.5,61.5 Z"/></g>
    <g><path style="opacity:0.239" fill="#d0c9e2" d="M 118.5,60.5 C 118.5,61.1667 118.5,61.8333 118.5,62.5C 117.833,62.5 117.5,62.8333 117.5,63.5C 117.167,63.5 116.833,63.5 116.5,63.5C 116.427,61.9731 117.094,60.9731 118.5,60.5 Z"/></g>
    <g><path style="opacity:0.396" fill="#c9d6e3" d="M 256.5,58.5 C 254.833,62.1667 252.167,64.8333 248.5,66.5C 250.833,63.5 253.5,60.8333 256.5,58.5 Z"/></g>
    <g><path style="opacity:1" fill="#5e90bc" d="M 273.5,12.5 C 274.5,13.1667 275.5,13.8333 276.5,14.5C 276.427,16.0269 277.094,17.0269 278.5,17.5C 278.523,19.9267 279.023,22.26 280,24.5C 280.169,40.3387 280.669,56.0054 281.5,71.5C 285.634,72.4849 289.968,72.8182 294.5,72.5C 294.5,77.5 294.5,82.5 294.5,87.5C 294.158,88.3382 293.492,88.6716 292.5,88.5C 290.708,88.366 289.042,88.6993 287.5,89.5C 288.747,87.822 290.414,86.4887 292.5,85.5C 293.489,81.8927 293.823,78.226 293.5,74.5C 291.5,74.5 289.5,74.5 287.5,74.5C 287.906,76.1092 287.906,77.4425 287.5,78.5C 286.278,76.0217 284.278,75.0217 281.5,75.5C 281.392,77.7834 280.559,79.7834 279,81.5C 277.836,78.8651 276.669,76.1984 275.5,73.5C 274.515,75.772 273.681,78.1053 273,80.5C 271.989,79.6634 270.822,79.33 269.5,79.5C 269.167,81.5 268.833,83.5 268.5,85.5C 267.022,85.238 265.689,85.5713 264.5,86.5C 271.314,88.8068 278.314,89.8068 285.5,89.5C 285.5,89.8333 285.5,90.1667 285.5,90.5C 285.167,90.5 284.833,90.5 284.5,90.5C 277.349,90.8914 270.349,90.2247 263.5,88.5C 262.772,86.4885 261.938,84.4885 261,82.5C 258.842,80.4142 256.675,78.4142 254.5,76.5C 255.332,75.6715 254.999,74.8382 253.5,74C 255.007,73.1627 255.507,71.9961 255,70.5C 254.196,71.8045 253.029,72.4712 251.5,72.5C 250.81,71.512 249.643,70.512 248,69.5C 247.329,70.2524 246.496,70.5858 245.5,70.5C 246.5,69.1667 247.5,67.8333 248.5,66.5C 252.167,64.8333 254.833,62.1667 256.5,58.5C 257.404,57.791 257.737,56.791 257.5,55.5C 251.491,55.3338 245.491,55.5005 239.5,56C 238.263,56.2321 237.263,56.7321 236.5,57.5C 236.158,58.3382 235.492,58.6716 234.5,58.5C 233.508,58.6716 232.842,58.3382 232.5,57.5C 232.804,56.8501 233.137,56.1835 233.5,55.5C 241.479,54.6684 249.479,54.1684 257.5,54C 259.421,53.6397 261.088,52.8064 262.5,51.5C 263.386,52.325 263.719,53.325 263.5,54.5C 262.5,54.5 261.5,54.5 260.5,54.5C 258.773,58.2256 259.773,61.0589 263.5,63C 266.35,64.0462 269.017,64.7128 271.5,65C 270.41,67.279 270.744,69.4457 272.5,71.5C 273.48,68.9135 273.813,66.2469 273.5,63.5C 274.833,63.5 276.167,63.5 277.5,63.5C 277.491,65.3084 277.991,66.9751 279,68.5C 278.779,54.5255 278.445,40.5255 278,26.5C 277.802,24.6183 277.302,22.9516 276.5,21.5C 275.873,18.3428 274.873,15.3428 273.5,12.5 Z"/></g>
    <g><path style="opacity:0.565" fill="#b0c2d8" d="M 256.5,58.5 C 256.389,57.8826 256.056,57.3826 255.5,57C 249.144,56.4065 242.811,56.5731 236.5,57.5C 237.263,56.7321 238.263,56.2321 239.5,56C 245.491,55.5005 251.491,55.3338 257.5,55.5C 257.737,56.791 257.404,57.791 256.5,58.5 Z"/></g>
    <g><path style="opacity:0.302" fill="#dae9f2" d="M 370.5,63.5 C 371.947,62.1148 372.947,62.4482 373.5,64.5C 372.609,63.8902 371.609,63.5569 370.5,63.5 Z"/></g>
    <g><path style="opacity:0.216" fill="#c3d2e9" d="M 509.5,60.5 C 509.573,62.0269 508.906,63.0269 507.5,63.5C 507.427,61.9731 508.094,60.9731 509.5,60.5 Z"/></g>
    <g><path style="opacity:1" fill="#90b7d5" d="M 143.5,62.5 C 143.5,62.8333 143.5,63.1667 143.5,63.5C 138.707,63.9114 137.707,65.9114 140.5,69.5C 139.504,69.5858 138.671,69.2524 138,68.5C 137.654,66.7818 137.154,65.1151 136.5,63.5C 138.743,62.5258 141.076,62.1924 143.5,62.5 Z"/></g>
    <g><path style="opacity:0.01" fill="#dbedf9" d="M 230.5,61.5 C 230.5,64.1667 230.5,66.8333 230.5,69.5C 227.941,66.9102 227.941,64.2435 230.5,61.5 Z"/></g>
    <g><path style="opacity:0.529" fill="#b9cde3" d="M 65.5,63.5 C 65.0269,64.9063 64.0269,65.573 62.5,65.5C 62.9731,64.0937 63.9731,63.427 65.5,63.5 Z"/></g>
    <g><path style="opacity:0.686" fill="#bbd8e8" d="M 328.5,63.5 C 329.833,64.1667 330.833,65.1667 331.5,66.5C 329.5,66.5 328.5,65.5 328.5,63.5 Z"/></g>
    <g><path style="opacity:0.012" fill="#dee5ed" d="M 535.5,63.5 C 542.167,63.5 548.833,63.5 555.5,63.5C 548.833,66.1667 542.167,66.1667 535.5,63.5 Z"/></g>
    <g><path style="opacity:1" fill="#779dc0" d="M 370.5,63.5 C 371.609,63.5569 372.609,63.8902 373.5,64.5C 375.674,67.5154 377.341,70.8487 378.5,74.5C 378.427,76.0269 379.094,77.0269 380.5,77.5C 381.833,78.8333 381.833,80.1667 380.5,81.5C 379.833,81.5 379.167,81.5 378.5,81.5C 378.162,79.146 377.662,76.8127 377,74.5C 375.719,74.6192 374.552,74.1192 373.5,73C 374.833,71.3333 374.833,69.6667 373.5,68C 371.835,68.7436 370.169,68.5769 368.5,67.5C 366.004,68.8885 363.337,69.8885 360.5,70.5C 362.041,69.3332 363.375,67.9999 364.5,66.5C 366.181,64.9925 368.181,63.9925 370.5,63.5 Z"/></g>
    <g><path style="opacity:0.58" fill="#aabed3" d="M 62.5,65.5 C 60.5659,68.0582 57.8992,69.3915 54.5,69.5C 56.8967,67.8052 59.5634,66.4718 62.5,65.5 Z"/></g>
    <g><path style="opacity:1" fill="#5c90bf" d="M 177.5,81.5 C 177.44,82.0431 177.107,82.3764 176.5,82.5C 169.537,81.7098 162.537,81.0432 155.5,80.5C 151.823,80.1995 150.157,81.8661 150.5,85.5C 152.942,85.1192 153.609,85.7859 152.5,87.5C 156.155,90.7963 158.488,90.1296 159.5,85.5C 164.862,85.4724 170.195,85.8058 175.5,86.5C 175.719,87.675 175.386,88.675 174.5,89.5C 172.902,88.5153 171.235,88.3486 169.5,89C 171.167,90 172.833,91 174.5,92C 173.167,92.6667 171.833,93.3333 170.5,94C 171.056,94.3826 171.389,94.8826 171.5,95.5C 170.833,95.5 170.167,95.5 169.5,95.5C 162.301,95.2372 155.134,94.5705 148,93.5C 145.558,93.4823 143.392,94.149 141.5,95.5C 139.403,95.6301 137.236,95.6301 135,95.5C 136.601,104.889 134.435,105.889 128.5,98.5C 128.167,98.8333 127.833,99.1667 127.5,99.5C 130.304,103.486 129.97,106.986 126.5,110C 127.025,110.692 127.692,111.192 128.5,111.5C 129.877,108.274 131.543,107.941 133.5,110.5C 131.988,111.249 130.988,112.416 130.5,114C 131.424,115.15 131.424,116.15 130.5,117C 133.167,118 133.167,119 130.5,120C 132.441,120.743 134.274,120.576 136,119.5C 137.786,121.099 139.953,121.933 142.5,122C 143.973,122.71 144.64,123.876 144.5,125.5C 141.167,124.833 137.833,124.167 134.5,123.5C 130.076,122.454 125.743,121.121 121.5,119.5C 120.934,115.68 118.934,113.013 115.5,111.5C 115.5,111.167 115.5,110.833 115.5,110.5C 115.5,106.167 115.5,101.833 115.5,97.5C 115.402,95.4471 116.069,93.7804 117.5,92.5C 118.906,92.0269 119.573,91.0269 119.5,89.5C 121.027,89.573 122.027,88.9063 122.5,87.5C 122.5,86.8333 122.5,86.1667 122.5,85.5C 122.027,84.0937 121.027,83.427 119.5,83.5C 119.502,81.1691 118.669,79.1691 117,77.5C 116.436,72.8065 116.603,68.1398 117.5,63.5C 117.5,62.8333 117.833,62.5 118.5,62.5C 120.797,60.7059 122.963,58.7059 125,56.5C 125.419,57.6721 126.085,58.6721 127,59.5C 126.68,56.5399 126.68,53.5399 127,50.5C 127.908,48.5614 129.408,47.5614 131.5,47.5C 130.174,52.3803 129.34,57.3803 129,62.5C 127.98,63.8905 127.147,65.3905 126.5,67C 128,67.8333 129.167,69 130,70.5C 130.273,68.8988 130.773,67.3988 131.5,66C 131.043,65.586 130.709,65.086 130.5,64.5C 134.982,62.8511 137.149,64.5177 137,69.5C 140.693,72.035 144.859,73.2017 149.5,73C 148.062,73.2189 146.729,73.7189 145.5,74.5C 147.813,75.2733 150.146,75.9399 152.5,76.5C 160.134,75.7162 167.8,75.8828 175.5,77C 176.833,77.6667 178.167,78.3333 179.5,79C 178.619,79.7083 177.953,80.5416 177.5,81.5 Z"/></g>
    <g><path style="opacity:0.757" fill="#b6c0cd" d="M 208.5,54.5 C 207.659,61.4648 207.326,68.4648 207.5,75.5C 205.994,72.644 205.328,69.4774 205.5,66C 205.107,61.6839 206.107,57.8506 208.5,54.5 Z"/></g>
    <g><path style="opacity:0.192" fill="#cfd1da" d="M 305.5,65.5 C 305.833,65.5 306.167,65.5 306.5,65.5C 307.038,67.1172 307.371,68.7839 307.5,70.5C 306.069,69.2196 305.402,67.5529 305.5,65.5 Z"/></g>
    <g><path style="opacity:0.988" fill="#83a8c6" d="M 36.5,61.5 C 37.1667,62.5 37.8333,63.5 38.5,64.5C 39.2485,66.3325 40.2485,67.9991 41.5,69.5C 41.5,69.8333 41.5,70.1667 41.5,70.5C 40.5,70.5 39.5,70.5 38.5,70.5C 37.8333,67.5 37.1667,64.5 36.5,61.5 Z"/></g>
    <g><path style="opacity:1" fill="#9bb4ce" d="M 248.5,66.5 C 247.5,67.8333 246.5,69.1667 245.5,70.5C 244.833,70.5 244.167,70.5 243.5,70.5C 242.167,70.5 240.833,70.5 239.5,70.5C 242.457,69.1766 245.457,67.8432 248.5,66.5 Z"/></g>
    <g><path style="opacity:0.384" fill="#adc2d7" d="M 41.5,70.5 C 41.5,70.1667 41.5,69.8333 41.5,69.5C 45.8333,70.8333 50.1667,70.8333 54.5,69.5C 54.3893,70.1174 54.056,70.6174 53.5,71C 49.4126,71.7625 45.4126,71.5958 41.5,70.5 Z"/></g>
    <g><path style="opacity:1" fill="#598fbf" d="M 90.5,9.5 C 90.8095,29.194 90.4761,48.8607 89.5,68.5C 89.7472,69.7133 90.4138,70.38 91.5,70.5C 91.5,71.1667 91.8333,71.5 92.5,71.5C 92.5,71.8333 92.5,72.1667 92.5,72.5C 91.045,72.9302 89.7117,72.9302 88.5,72.5C 88.9767,73.4776 89.6433,74.3109 90.5,75C 89.7934,77.5197 88.96,80.0197 88,82.5C 87.2276,81.1509 86.0609,80.3176 84.5,80C 85.7883,77.5335 85.7883,75.0335 84.5,72.5C 83.675,71.6143 82.675,71.281 81.5,71.5C 80.9935,75.0071 81.6602,78.1737 83.5,81C 80.9595,82.0404 79.2929,83.8737 78.5,86.5C 76.8888,85.6798 76.2222,84.3464 76.5,82.5C 70.737,81.0448 65.0704,80.2115 59.5,80C 59.9574,79.586 60.2907,79.086 60.5,78.5C 58.2674,75.6652 59.2674,74.3319 63.5,74.5C 63.5,73.5 63.5,72.5 63.5,71.5C 62.448,71.6495 61.448,71.4828 60.5,71C 60.8333,70.6667 61.1667,70.3333 61.5,70C 64.4262,69.7822 67.2595,69.2822 70,68.5C 70.1981,66.6183 70.6981,64.9516 71.5,63.5C 75.6024,63.2504 77.1024,61.2504 76,57.5C 77.3333,58.8333 78.6667,58.8333 80,57.5C 79.9957,61.1921 80.9957,64.5254 83,67.5C 84.6667,65.8333 86.3333,64.1667 88,62.5C 88.8191,45.1226 88.6524,27.7893 87.5,10.5C 88.325,9.61432 89.325,9.28099 90.5,9.5 Z"/></g>
    <g><path style="opacity:0.698" fill="#a7b2ca" d="M 116.5,63.5 C 116.833,63.5 117.167,63.5 117.5,63.5C 116.603,68.1398 116.436,72.8065 117,77.5C 118.669,79.1691 119.502,81.1691 119.5,83.5C 114.393,77.414 113.393,70.7473 116.5,63.5 Z"/></g>
    <g><path style="opacity:0.706" fill="#adc5d7" d="M 141.5,69.5 C 145.011,69.8994 148.344,70.5661 151.5,71.5C 148.482,71.6646 145.482,71.498 142.5,71C 141.944,70.6174 141.611,70.1174 141.5,69.5 Z"/></g>
    <g><path style="opacity:1" fill="#5e90bf" d="M 325.5,36.5 C 325.5,36.8333 325.5,37.1667 325.5,37.5C 323.167,37.5 320.833,37.5 318.5,37.5C 317.444,41.5292 317.444,45.5292 318.5,49.5C 314.118,53.1424 312.452,57.809 313.5,63.5C 314.5,63.5 315.5,63.5 316.5,63.5C 316.291,65.7144 317.124,67.381 319,68.5C 321.05,67.2088 323.217,66.7088 325.5,67C 326.337,68.0113 326.67,69.1779 326.5,70.5C 325.022,70.238 323.689,70.5713 322.5,71.5C 322.667,71.8333 322.833,72.1667 323,72.5C 325.738,74.6464 328.738,76.313 332,77.5C 331.021,79.2785 331.354,80.9452 333,82.5C 335.541,80.8038 338.041,78.9705 340.5,77C 340.167,76.6667 339.833,76.3333 339.5,76C 341.18,75.9657 342.68,75.799 344,75.5C 346.762,76.9806 349.429,78.6473 352,80.5C 352.333,80.1667 352.667,79.8333 353,79.5C 358.386,80.7668 363.719,82.1002 369,83.5C 369.5,83.1667 370,82.8333 370.5,82.5C 368.148,80.4153 365.482,78.9153 362.5,78C 364.256,77.7978 365.922,77.2978 367.5,76.5C 364.512,74.4481 361.179,73.2814 357.5,73C 356.402,72.2303 356.402,71.397 357.5,70.5C 358.5,70.5 359.5,70.5 360.5,70.5C 363.337,69.8885 366.004,68.8885 368.5,67.5C 370.169,68.5769 371.835,68.7436 373.5,68C 374.833,69.6667 374.833,71.3333 373.5,73C 374.552,74.1192 375.719,74.6192 377,74.5C 377.662,76.8127 378.162,79.146 378.5,81.5C 375.339,83.0627 372.173,84.7294 369,86.5C 367.248,85.7137 365.414,85.8804 363.5,87C 365.619,87.3418 365.953,88.1751 364.5,89.5C 353.915,92.9395 343.248,93.2729 332.5,90.5C 330.786,89.2616 328.786,88.595 326.5,88.5C 326.167,88.5 325.833,88.5 325.5,88.5C 325.027,87.0937 324.027,86.427 322.5,86.5C 322.027,85.0937 321.027,84.427 319.5,84.5C 318.5,82.1667 316.833,80.5 314.5,79.5C 314.833,77.5 315.167,75.5 315.5,73.5C 313.5,73.1667 311.5,72.8333 309.5,72.5C 309.67,71.1779 309.337,70.0113 308.5,69C 309.833,67.6667 311.167,66.3333 312.5,65C 311.584,64.6258 310.75,64.1258 310,63.5C 309.333,60.8333 309.333,58.1667 310,55.5C 312.214,53.01 313.381,50.01 313.5,46.5C 312.37,41.7757 311.036,37.109 309.5,32.5C 310.833,32.5 312.167,32.5 313.5,32.5C 312.599,36.2407 313.932,38.2407 317.5,38.5C 317.5,36.1667 317.5,33.8333 317.5,31.5C 313.921,31.2343 313.587,29.901 316.5,27.5C 317.583,31.7091 320.249,33.7091 324.5,33.5C 324.263,34.791 324.596,35.791 325.5,36.5 Z"/></g>
    <g><path style="opacity:0.667" fill="#9eb3ca" d="M 331.5,66.5 C 335.651,69.3736 340.318,70.707 345.5,70.5C 352.078,70.1848 358.411,68.8515 364.5,66.5C 363.375,67.9999 362.041,69.3332 360.5,70.5C 359.5,70.5 358.5,70.5 357.5,70.5C 349.861,71.5246 342.195,71.6912 334.5,71C 333.252,69.6003 332.252,68.1003 331.5,66.5 Z"/></g>
    <g><path style="opacity:0.694" fill="#bec3d0" d="M 507.5,63.5 C 507.181,68.3633 507.514,73.03 508.5,77.5C 508.5,78.1667 508.5,78.8333 508.5,79.5C 509.11,80.391 509.443,81.391 509.5,82.5C 505.132,76.5575 504.466,70.2241 507.5,63.5 Z"/></g>
    <g><path style="opacity:0.733" fill="#b2cae2" d="M 532.5,69.5 C 545.05,70.957 557.383,72.957 569.5,75.5C 560.185,74.3357 550.852,73.3357 541.5,72.5C 539.031,71.6829 536.365,71.1829 533.5,71C 532.944,70.6174 532.611,70.1174 532.5,69.5 Z"/></g>
    <g><path style="opacity:0.471" fill="#c1deef" d="M 92.5,3.5 C 93.4975,25.9939 93.8308,48.6605 93.5,71.5C 98.1667,71.5 102.833,71.5 107.5,71.5C 107.821,77.0262 107.488,82.3595 106.5,87.5C 106.5,85.8333 106.5,84.1667 106.5,82.5C 106.5,79.1667 106.5,75.8333 106.5,72.5C 101.833,72.5 97.1667,72.5 92.5,72.5C 92.5,72.1667 92.5,71.8333 92.5,71.5C 92.5,48.8333 92.5,26.1667 92.5,3.5 Z"/></g>
    <g><path style="opacity:0.47" fill="#c8e0ee" d="M 483.5,29.5 C 484.496,43.3234 484.829,57.3234 484.5,71.5C 489.167,71.5 493.833,71.5 498.5,71.5C 498.821,77.0262 498.488,82.3595 497.5,87.5C 497.5,82.5 497.5,77.5 497.5,72.5C 493.167,72.5 488.833,72.5 484.5,72.5C 483.504,58.3431 483.171,44.0097 483.5,29.5 Z"/></g>
    <g><path style="opacity:0.161" fill="#cbdfef" d="M 159.5,72.5 C 165.783,72.5849 171.783,73.5849 177.5,75.5C 171.28,75.0431 165.28,74.0431 159.5,72.5 Z"/></g>
    <g><path style="opacity:0.2" fill="#d0d7e6" d="M 15.5,71.5 C 16.1667,72.1667 16.8333,72.8333 17.5,73.5C 17.5,74.5 17.5,75.5 17.5,76.5C 16.0687,75.2196 15.4021,73.5529 15.5,71.5 Z"/></g>
    <g><path style="opacity:0.004" fill="#d9e9f6" d="M 177.5,75.5 C 179.898,75.2594 181.898,75.9261 183.5,77.5C 181.214,77.405 179.214,76.7384 177.5,75.5 Z"/></g>
    <g><path style="opacity:0.359" fill="#b3c2d7" d="M 404.5,70.5 C 404.833,70.5 405.167,70.5 405.5,70.5C 405.5,70.8333 405.5,71.1667 405.5,71.5C 401.167,71.5 396.833,71.5 392.5,71.5C 392.5,77.5 392.5,83.5 392.5,89.5C 409.167,89.5 425.833,89.5 442.5,89.5C 442.833,89.5 443.167,89.5 443.5,89.5C 426.341,90.4967 409.008,90.83 391.5,90.5C 391.5,83.8333 391.5,77.1667 391.5,70.5C 395.833,70.5 400.167,70.5 404.5,70.5 Z"/></g>
    <g><path style="opacity:1" fill="#7ea3c7" d="M 254.5,76.5 C 256.675,78.4142 258.842,80.4142 261,82.5C 261.938,84.4885 262.772,86.4885 263.5,88.5C 261.983,88.4894 260.816,87.8228 260,86.5C 259.252,84.6675 258.252,83.0009 257,81.5C 254.095,85.5821 250.262,88.2487 245.5,89.5C 245.167,89.5 244.833,89.5 244.5,89.5C 244.082,88.7784 243.416,88.2784 242.5,88C 246.214,87.4868 249.547,86.3201 252.5,84.5C 252.5,82.5 252.5,80.5 252.5,78.5C 251.127,78.6567 249.793,78.49 248.5,78C 250.518,77.4954 252.518,76.9954 254.5,76.5 Z"/></g>
    <g><path style="opacity:0.125" fill="#d4edf8" d="M 378.5,74.5 C 379.906,74.9731 380.573,75.9731 380.5,77.5C 379.094,77.0269 378.427,76.0269 378.5,74.5 Z"/></g>
    <g><path style="opacity:0.02" fill="#dbe1eb" d="M 311.5,76.5 C 312.906,76.9731 313.573,77.9731 313.5,79.5C 312.094,79.0269 311.427,78.0269 311.5,76.5 Z"/></g>
    <g><path style="opacity:1" fill="#5f91be" d="M 541.5,72.5 C 550.852,73.3357 560.185,74.3357 569.5,75.5C 575.218,76.8889 579.885,79.8889 583.5,84.5C 583.427,86.0269 584.094,87.0269 585.5,87.5C 585.992,89.8185 586.992,91.8185 588.5,93.5C 588.5,93.8333 588.5,94.1667 588.5,94.5C 588.587,99.5365 588.254,104.537 587.5,109.5C 587.672,110.492 587.338,111.158 586.5,111.5C 586.167,111.5 585.833,111.5 585.5,111.5C 584.167,111.5 582.833,111.5 581.5,111.5C 579.569,106.373 577.902,101.373 576.5,96.5C 575.252,97.0402 574.085,97.7069 573,98.5C 571.484,95.9938 569.318,95.1605 566.5,96C 569.119,97.8565 569.952,100.356 569,103.5C 567.67,104.582 566.17,105.249 564.5,105.5C 566.339,103.21 566.672,100.877 565.5,98.5C 564.952,95.9162 563.285,94.9162 560.5,95.5C 553.456,95.2444 546.456,94.5777 539.5,93.5C 536.572,91.9188 534.239,92.5855 532.5,95.5C 532.167,96.5 531.5,97.1667 530.5,97.5C 530.167,97.5 529.833,97.5 529.5,97.5C 529.674,95.139 530.007,92.8056 530.5,90.5C 535.775,90.2875 540.942,90.2875 546,90.5C 547.92,90.062 549.754,89.3953 551.5,88.5C 550.91,87.2011 549.91,86.3678 548.5,86C 540.904,85.0087 541.238,83.842 549.5,82.5C 548.271,81.7189 546.938,81.2189 545.5,81C 546.807,78.6763 548.807,77.343 551.5,77C 549.347,74.8349 546.681,74.0016 543.5,74.5C 543.5,75.5 543.5,76.5 543.5,77.5C 542.5,77.5 541.5,77.5 540.5,77.5C 540.366,75.7085 540.699,74.0418 541.5,72.5 Z"/></g>
    <g><path style="opacity:0.278" fill="#c2d1e2" d="M 207.5,75.5 C 208.931,76.7804 209.598,78.4471 209.5,80.5C 208.069,79.2196 207.402,77.5529 207.5,75.5 Z"/></g>
    <g><path style="opacity:1" fill="#5a90bf" d="M 177.5,81.5 C 178.957,83.2418 180.124,85.2418 181,87.5C 182.352,85.4062 182.852,83.0728 182.5,80.5C 185.368,80.085 187.535,81.085 189,83.5C 189.383,82.944 189.883,82.6107 190.5,82.5C 191.419,85.0892 193.086,87.0892 195.5,88.5C 197.624,95.4084 197.957,102.408 196.5,109.5C 196.672,110.492 196.338,111.158 195.5,111.5C 194.833,111.833 194.167,112.167 193.5,112.5C 192.614,111.224 191.614,111.224 190.5,112.5C 191.891,114.936 191.391,115.602 189,114.5C 186.567,117.084 184.4,119.751 182.5,122.5C 181.833,122.5 181.167,122.5 180.5,122.5C 174.472,122.92 168.805,124.253 163.5,126.5C 163.649,125.448 163.483,124.448 163,123.5C 162.259,124.641 161.425,124.641 160.5,123.5C 158.885,119.485 159.885,116.319 163.5,114C 161.893,112.951 161.227,111.451 161.5,109.5C 166.458,108.292 171.458,107.292 176.5,106.5C 176.81,103.287 176.477,100.287 175.5,97.5C 174.395,96.3995 173.062,95.7329 171.5,95.5C 171.389,94.8826 171.056,94.3826 170.5,94C 171.833,93.3333 173.167,92.6667 174.5,92C 172.833,91 171.167,90 169.5,89C 171.235,88.3486 172.902,88.5153 174.5,89.5C 175.386,88.675 175.719,87.675 175.5,86.5C 170.195,85.8058 164.862,85.4724 159.5,85.5C 158.488,90.1296 156.155,90.7963 152.5,87.5C 153.609,85.7859 152.942,85.1192 150.5,85.5C 150.157,81.8661 151.823,80.1995 155.5,80.5C 162.537,81.0432 169.537,81.7098 176.5,82.5C 177.107,82.3764 177.44,82.0431 177.5,81.5 Z"/></g>
    <g><path style="opacity:1" fill="#5a8fbf" d="M 287.5,89.5 C 286.833,89.5 286.167,89.5 285.5,89.5C 278.314,89.8068 271.314,88.8068 264.5,86.5C 265.689,85.5713 267.022,85.238 268.5,85.5C 268.833,83.5 269.167,81.5 269.5,79.5C 270.822,79.33 271.989,79.6634 273,80.5C 273.681,78.1053 274.515,75.772 275.5,73.5C 276.669,76.1984 277.836,78.8651 279,81.5C 280.559,79.7834 281.392,77.7834 281.5,75.5C 284.278,75.0217 286.278,76.0217 287.5,78.5C 287.906,77.4425 287.906,76.1092 287.5,74.5C 289.5,74.5 291.5,74.5 293.5,74.5C 293.823,78.226 293.489,81.8927 292.5,85.5C 290.414,86.4887 288.747,87.822 287.5,89.5 Z"/></g>
    <g><path style="opacity:0.437" fill="#bad5ec" d="M 281.5,71.5 C 286.167,71.5 290.833,71.5 295.5,71.5C 296.747,77.122 296.413,82.4553 294.5,87.5C 294.5,82.5 294.5,77.5 294.5,72.5C 289.968,72.8182 285.634,72.4849 281.5,71.5 Z"/></g>
    <g><path style="opacity:1" fill="#5a8fbf" d="M 243.5,70.5 C 244.167,70.5 244.833,70.5 245.5,70.5C 246.496,70.5858 247.329,70.2524 248,69.5C 249.643,70.512 250.81,71.512 251.5,72.5C 253.029,72.4712 254.196,71.8045 255,70.5C 255.507,71.9961 255.007,73.1627 253.5,74C 254.999,74.8382 255.332,75.6715 254.5,76.5C 252.518,76.9954 250.518,77.4954 248.5,78C 249.793,78.49 251.127,78.6567 252.5,78.5C 252.5,80.5 252.5,82.5 252.5,84.5C 249.547,86.3201 246.214,87.4868 242.5,88C 243.416,88.2784 244.082,88.7784 244.5,89.5C 243.391,89.5569 242.391,89.8902 241.5,90.5C 233.685,90.9241 226.018,90.2575 218.5,88.5C 218.027,87.0937 217.027,86.427 215.5,86.5C 215.167,85.8333 214.833,85.1667 214.5,84.5C 211.734,80.5411 209.734,76.2078 208.5,71.5C 208.495,67.5118 209.828,64.1785 212.5,61.5C 213.467,60.1938 214.801,59.5271 216.5,59.5C 216.167,56.5 217.5,55.1667 220.5,55.5C 220.194,51.3029 222.194,49.3029 226.5,49.5C 226.649,50.552 226.483,51.552 226,52.5C 222.158,55.1753 218.992,58.5087 216.5,62.5C 216.808,63.3081 217.308,63.9747 218,64.5C 219.011,63.6634 220.178,63.33 221.5,63.5C 221.125,66.3965 221.625,69.0632 223,71.5C 225.103,62.369 226.77,62.369 228,71.5C 229.333,72.1667 230.667,72.8333 232,73.5C 231.917,76.1194 231.75,78.786 231.5,81.5C 234.359,81.5918 236.859,81.9251 239,82.5C 239.374,81.5838 239.874,80.7504 240.5,80C 238.5,78.6667 236.833,77 235.5,75C 238.391,73.7258 241.058,72.2258 243.5,70.5 Z"/></g>
    <g><path style="opacity:0.361" fill="#abc5db" d="M 230.5,69.5 C 233.43,70.299 236.43,70.6323 239.5,70.5C 237.034,71.6341 234.367,71.8007 231.5,71C 230.944,70.6174 230.611,70.1174 230.5,69.5 Z"/></g>
    <g><path style="opacity:0.58" fill="#aebed4" d="M 313.5,79.5 C 313.833,79.5 314.167,79.5 314.5,79.5C 316.833,80.5 318.5,82.1667 319.5,84.5C 316.911,83.5806 314.911,81.914 313.5,79.5 Z"/></g>
    <g><path style="opacity:0.957" fill="#8ba0bc" d="M 17.5,73.5 C 19.1049,75.4799 20.2715,77.8132 21,80.5C 23.582,82.2278 25.082,84.5611 25.5,87.5C 23.9826,87.4894 22.8159,86.8228 22,85.5C 19.9404,82.7143 18.4404,79.7143 17.5,76.5C 17.5,75.5 17.5,74.5 17.5,73.5 Z"/></g>
    <g><path style="opacity:0.082" fill="#c4dbef" d="M 69.5,83.5 C 70.9473,82.1148 71.9473,82.4482 72.5,84.5C 71.609,83.8902 70.609,83.5569 69.5,83.5 Z"/></g>
    <g><path style="opacity:1" fill="#7d96b7" d="M 508.5,79.5 C 510.434,81.297 512.767,82.297 515.5,82.5C 515.662,84.5273 515.495,86.5273 515,88.5C 508.018,93.7809 505.518,100.781 507.5,109.5C 506.523,106.713 506.19,103.713 506.5,100.5C 506.5,99.1667 506.5,97.8333 506.5,96.5C 506.66,94.847 507.326,93.5137 508.5,92.5C 510.5,91.1667 512.167,89.5 513.5,87.5C 512.25,85.8459 510.916,84.1793 509.5,82.5C 509.443,81.391 509.11,80.391 508.5,79.5 Z"/></g>
    <g><path style="opacity:0.678" fill="#b8c1d5" d="M 119.5,83.5 C 121.027,83.427 122.027,84.0937 122.5,85.5C 120.973,85.573 119.973,84.9063 119.5,83.5 Z"/></g>
    <g><path style="opacity:0.455" fill="#c2cdd6" d="M 212.5,84.5 C 213.167,84.5 213.833,84.5 214.5,84.5C 214.833,85.1667 215.167,85.8333 215.5,86.5C 213.973,86.573 212.973,85.9063 212.5,84.5 Z"/></g>
    <g><path style="opacity:0.365" fill="#bbc9d9" d="M 319.5,84.5 C 321.027,84.427 322.027,85.0937 322.5,86.5C 320.973,86.573 319.973,85.9063 319.5,84.5 Z"/></g>
    <g><path style="opacity:0.447" fill="#cad2e6" d="M 73.5,86.5 C 75.0269,86.427 76.0269,87.0937 76.5,88.5C 74.9731,88.573 73.9731,87.9063 73.5,86.5 Z"/></g>
    <g><path style="opacity:0.999" fill="#8aadce" d="M 378.5,81.5 C 379.167,81.5 379.833,81.5 380.5,81.5C 375.861,85.4526 370.528,88.1192 364.5,89.5C 365.953,88.1751 365.619,87.3418 363.5,87C 365.414,85.8804 367.248,85.7137 369,86.5C 372.173,84.7294 375.339,83.0627 378.5,81.5 Z"/></g>
    <g><path style="opacity:0.545" fill="#bac8dd" d="M 464.5,86.5 C 466.027,86.427 467.027,87.0937 467.5,88.5C 465.973,88.573 464.973,87.9063 464.5,86.5 Z"/></g>
    <g><path style="opacity:0.502" fill="#bcd6ee" d="M 583.5,84.5 C 584.906,84.9731 585.573,85.9731 585.5,87.5C 584.094,87.0269 583.427,86.0269 583.5,84.5 Z"/></g>
    <g><path style="opacity:0.996" fill="#8facc9" d="M 106.5,82.5 C 106.5,84.1667 106.5,85.8333 106.5,87.5C 97.9233,91.3785 88.9233,92.3785 79.5,90.5C 79.5,90.1667 79.5,89.8333 79.5,89.5C 88.0857,90.1745 96.4191,89.1745 104.5,86.5C 105.172,85.0508 105.839,83.7175 106.5,82.5 Z"/></g>
    <g><path style="opacity:0.145" fill="#c2ddee" d="M 190.5,82.5 C 192.914,83.9108 194.581,85.9108 195.5,88.5C 193.086,87.0892 191.419,85.0892 190.5,82.5 Z"/></g>
    <g><path style="opacity:0.427" fill="#b4c0d7" d="M 215.5,86.5 C 217.027,86.427 218.027,87.0937 218.5,88.5C 216.973,88.573 215.973,87.9063 215.5,86.5 Z"/></g>
    <g><path style="opacity:0.137" fill="#d3dfea" d="M 322.5,86.5 C 324.027,86.427 325.027,87.0937 325.5,88.5C 323.973,88.573 322.973,87.9063 322.5,86.5 Z"/></g>
    <g><path style="opacity:0.318" fill="#c0c8dc" d="M 25.5,87.5 C 27.0269,87.427 28.0269,88.0937 28.5,89.5C 26.9731,89.573 25.9731,88.9063 25.5,87.5 Z"/></g>
    <g><path style="opacity:0.992" fill="#a2bed7" d="M 62.5,87.5 C 59.2034,89.6013 55.5368,90.9347 51.5,91.5C 51.5,91.1667 51.5,90.8333 51.5,90.5C 53.2554,89.9278 54.9221,89.0945 56.5,88C 58.4727,87.5045 60.4727,87.3379 62.5,87.5 Z"/></g>
    <g><path style="opacity:0.478" fill="#c5d0da" d="M 122.5,87.5 C 122.027,88.9063 121.027,89.573 119.5,89.5C 119.973,88.0937 120.973,87.427 122.5,87.5 Z"/></g>
    <g><path style="opacity:0.997" fill="#638db4" d="M 405.5,71.5 C 405.719,72.675 405.386,73.675 404.5,74.5C 401.242,73.5827 397.909,73.2493 394.5,73.5C 394.5,78.5 394.5,83.5 394.5,88.5C 410.5,88.5 426.5,88.5 442.5,88.5C 442.5,88.8333 442.5,89.1667 442.5,89.5C 425.833,89.5 409.167,89.5 392.5,89.5C 392.5,83.5 392.5,77.5 392.5,71.5C 396.833,71.5 401.167,71.5 405.5,71.5 Z"/></g>
    <g><path style="opacity:1" fill="#6d95b9" d="M 484.5,72.5 C 488.833,72.5 493.167,72.5 497.5,72.5C 497.5,77.5 497.5,82.5 497.5,87.5C 495.898,89.0739 493.898,89.7406 491.5,89.5C 484.158,90.7237 476.824,90.7237 469.5,89.5C 468.508,89.6716 467.842,89.3382 467.5,88.5C 467.027,87.0937 466.027,86.427 464.5,86.5C 463.662,86.1583 463.328,85.4916 463.5,84.5C 462.962,82.8828 462.629,81.2161 462.5,79.5C 465.151,81.8888 467.485,84.7222 469.5,88C 478.586,88.8286 487.586,88.3286 496.5,86.5C 496.5,82.1667 496.5,77.8333 496.5,73.5C 493.5,73.5 490.5,73.5 487.5,73.5C 487.762,74.9778 487.429,76.3112 486.5,77.5C 484.783,76.3315 484.116,74.6648 484.5,72.5 Z"/></g>
    <g><path style="opacity:0.157" fill="#d5dfeb" d="M 76.5,88.5 C 77.609,88.5569 78.609,88.8902 79.5,89.5C 79.5,89.8333 79.5,90.1667 79.5,90.5C 77.9731,90.573 76.9731,89.9063 76.5,88.5 Z"/></g>
    <g><path style="opacity:0.353" fill="#c3dcef" d="M 292.5,88.5 C 290.485,89.9238 288.152,90.5905 285.5,90.5C 285.5,90.1667 285.5,89.8333 285.5,89.5C 286.167,89.5 286.833,89.5 287.5,89.5C 289.042,88.6993 290.708,88.366 292.5,88.5 Z"/></g>
    <g><path style="opacity:0.118" fill="#cfdde9" d="M 326.5,88.5 C 328.786,88.595 330.786,89.2616 332.5,90.5C 330.102,90.7406 328.102,90.0739 326.5,88.5 Z"/></g>
    <g><path style="opacity:0.494" fill="#c8cddd" d="M 513.5,87.5 C 512.167,89.5 510.5,91.1667 508.5,92.5C 509.167,89.8333 510.833,88.1667 513.5,87.5 Z"/></g>
    <g><path style="opacity:0.176" fill="#caebf6" d="M 585.5,87.5 C 587.539,88.911 588.539,90.911 588.5,93.5C 586.992,91.8185 585.992,89.8185 585.5,87.5 Z"/></g>
    <g><path style="opacity:0.996" fill="#8fa9c7" d="M 28.5,89.5 C 36.1322,90.3577 43.7989,90.6911 51.5,90.5C 51.5,90.8333 51.5,91.1667 51.5,91.5C 43.5079,93.2405 35.8412,92.5738 28.5,89.5 Z"/></g>
    <g><path style="opacity:0.486" fill="#ced1db" d="M 119.5,89.5 C 119.573,91.0269 118.906,92.0269 117.5,92.5C 117.427,90.9731 118.094,89.9731 119.5,89.5 Z"/></g>
    <g><path style="opacity:0.992" fill="#92aec8" d="M 218.5,88.5 C 226.018,90.2575 233.685,90.9241 241.5,90.5C 241.5,90.8333 241.5,91.1667 241.5,91.5C 233.365,93.3097 225.698,92.3097 218.5,88.5 Z"/></g>
    <g><path style="opacity:0.004" fill="#dae6f0" d="M 244.5,89.5 C 244.833,89.5 245.167,89.5 245.5,89.5C 244.486,90.6737 243.153,91.3404 241.5,91.5C 241.5,91.1667 241.5,90.8333 241.5,90.5C 242.391,89.8902 243.391,89.5569 244.5,89.5 Z"/></g>
    <g><path style="opacity:0.416" fill="#b8cade" d="M 263.5,88.5 C 270.349,90.2247 277.349,90.8914 284.5,90.5C 279.35,91.6507 274.016,91.8174 268.5,91C 266.509,90.6264 264.842,89.793 263.5,88.5 Z"/></g>
    <g><path style="opacity:0.412" fill="#b8cbe0" d="M 469.5,89.5 C 476.824,90.7237 484.158,90.7237 491.5,89.5C 487.946,90.9844 484.112,91.6511 480,91.5C 476.195,91.6963 472.695,91.0296 469.5,89.5 Z"/></g>
    <g><path style="opacity:0.337" fill="#afcbe1" d="M 539.5,93.5 C 536.892,93.4003 534.558,94.0669 532.5,95.5C 534.239,92.5855 536.572,91.9188 539.5,93.5 Z"/></g>
    <g><path style="opacity:1" fill="#5a8fbf" d="M 532.5,69.5 C 532.611,70.1174 532.944,70.6174 533.5,71C 536.365,71.1829 539.031,71.6829 541.5,72.5C 540.699,74.0418 540.366,75.7085 540.5,77.5C 541.5,77.5 542.5,77.5 543.5,77.5C 543.5,76.5 543.5,75.5 543.5,74.5C 546.681,74.0016 549.347,74.8349 551.5,77C 548.807,77.343 546.807,78.6763 545.5,81C 546.938,81.2189 548.271,81.7189 549.5,82.5C 541.238,83.842 540.904,85.0087 548.5,86C 549.91,86.3678 550.91,87.2011 551.5,88.5C 549.754,89.3953 547.92,90.062 546,90.5C 540.942,90.2875 535.775,90.2875 530.5,90.5C 530.007,92.8056 529.674,95.139 529.5,97.5C 528.244,99.941 528.244,102.274 529.5,104.5C 529.5,104.833 529.5,105.167 529.5,105.5C 528.08,107.886 527.08,110.553 526.5,113.5C 524.178,115.243 521.678,116.577 519,117.5C 515.512,114.84 511.679,112.84 507.5,111.5C 507.5,110.833 507.5,110.167 507.5,109.5C 505.518,100.781 508.018,93.7809 515,88.5C 515.495,86.5273 515.662,84.5273 515.5,82.5C 512.767,82.297 510.434,81.297 508.5,79.5C 508.5,78.8333 508.5,78.1667 508.5,77.5C 508.335,73.8183 508.501,70.1516 509,66.5C 511.228,65.1085 512.394,63.1085 512.5,60.5C 517.369,60.3018 519.702,57.9685 519.5,53.5C 521.001,54.7515 522.668,55.7515 524.5,56.5C 523.01,57.8257 521.676,59.3257 520.5,61C 523.017,61.5792 525.017,60.7459 526.5,58.5C 527.355,60.6077 528.022,62.7744 528.5,65C 527.009,68.6865 528.343,70.1865 532.5,69.5 Z"/></g>
    <g><path style="opacity:0.843" fill="#a9bdd5" d="M 560.5,95.5 C 563.285,94.9162 564.952,95.9162 565.5,98.5C 563.887,97.3077 562.22,96.3077 560.5,95.5 Z"/></g>
    <g><path style="opacity:0.651" fill="#b0bed3" d="M 169.5,95.5 C 170.167,95.5 170.833,95.5 171.5,95.5C 173.062,95.7329 174.395,96.3995 175.5,97.5C 175.784,99.4147 175.451,101.081 174.5,102.5C 174.719,98.7315 173.053,96.3982 169.5,95.5 Z"/></g>
    <g><path style="opacity:0.017" fill="#f6f6fa" d="M 506.5,96.5 C 506.5,97.8333 506.5,99.1667 506.5,100.5C 505.532,102.607 505.198,104.941 505.5,107.5C 504.098,103.71 504.431,100.044 506.5,96.5 Z"/></g>
    <g><path style="opacity:0.298" fill="#c7e6f5" d="M 195.5,88.5 C 197.689,92.0916 198.689,96.0916 198.5,100.5C 198.657,103.814 197.991,106.814 196.5,109.5C 197.957,102.408 197.624,95.4084 195.5,88.5 Z"/></g>
    <g><path style="opacity:0.035" fill="#d4f0fb" d="M 529.5,97.5 C 529.833,97.5 530.167,97.5 530.5,97.5C 529.781,99.7638 529.448,102.097 529.5,104.5C 528.244,102.274 528.244,99.941 529.5,97.5 Z"/></g>
    <g><path style="opacity:0.486" fill="#babad3" d="M 506.5,100.5 C 506.19,103.713 506.523,106.713 507.5,109.5C 507.5,110.167 507.5,110.833 507.5,111.5C 507.5,111.833 507.5,112.167 507.5,112.5C 506.069,111.22 505.402,109.553 505.5,107.5C 505.198,104.941 505.532,102.607 506.5,100.5 Z"/></g>
    <g><path style="opacity:0.251" fill="#c8e7f9" d="M 588.5,94.5 C 589.162,96.3035 589.495,98.3035 589.5,100.5C 589.657,103.814 588.991,106.814 587.5,109.5C 588.254,104.537 588.587,99.5365 588.5,94.5 Z"/></g>
    <g><path style="opacity:0.516" fill="#cdcfd8" d="M 115.5,97.5 C 115.5,101.833 115.5,106.167 115.5,110.5C 112.833,106.167 112.833,101.833 115.5,97.5 Z"/></g>
    <g><path style="opacity:0.824" fill="#b0c1d8" d="M 565.5,98.5 C 566.672,100.877 566.339,103.21 564.5,105.5C 563.167,105.5 561.833,105.5 560.5,105.5C 563.841,104.52 565.508,102.187 565.5,98.5 Z"/></g>
    <g><path style="opacity:0.765" fill="#bad5ec" d="M 529.5,104.5 C 530.71,104.932 531.71,105.599 532.5,106.5C 531.209,106.737 530.209,106.404 529.5,105.5C 529.5,105.167 529.5,104.833 529.5,104.5 Z"/></g>
    <g><path style="opacity:1" fill="#5c90bd" d="M 141.5,95.5 C 141.167,96.5 140.5,97.1667 139.5,97.5C 138.007,98.3121 137.34,99.6455 137.5,101.5C 137.52,102.726 137.853,103.726 138.5,104.5C 138.821,106.048 139.821,106.715 141.5,106.5C 144.886,107.97 148.553,108.637 152.5,108.5C 157.524,108.247 162.524,107.747 167.5,107C 168.416,106.722 169.082,106.222 169.5,105.5C 172.285,106.084 173.952,105.084 174.5,102.5C 175.451,101.081 175.784,99.4147 175.5,97.5C 176.477,100.287 176.81,103.287 176.5,106.5C 171.458,107.292 166.458,108.292 161.5,109.5C 161.227,111.451 161.893,112.951 163.5,114C 159.885,116.319 158.885,119.485 160.5,123.5C 161.425,124.641 162.259,124.641 163,123.5C 163.483,124.448 163.649,125.448 163.5,126.5C 155.493,126.666 147.493,126.5 139.5,126C 137.347,125.901 135.681,125.067 134.5,123.5C 137.833,124.167 141.167,124.833 144.5,125.5C 144.64,123.876 143.973,122.71 142.5,122C 139.953,121.933 137.786,121.099 136,119.5C 134.274,120.576 132.441,120.743 130.5,120C 133.167,119 133.167,118 130.5,117C 131.424,116.15 131.424,115.15 130.5,114C 130.988,112.416 131.988,111.249 133.5,110.5C 131.543,107.941 129.877,108.274 128.5,111.5C 127.692,111.192 127.025,110.692 126.5,110C 129.97,106.986 130.304,103.486 127.5,99.5C 127.833,99.1667 128.167,98.8333 128.5,98.5C 134.435,105.889 136.601,104.889 135,95.5C 137.236,95.6301 139.403,95.6301 141.5,95.5 Z"/></g>
    <g><path style="opacity:0.714" fill="#baddee" d="M 138.5,104.5 C 139.71,104.932 140.71,105.599 141.5,106.5C 139.821,106.715 138.821,106.048 138.5,104.5 Z"/></g>
    <g><path style="opacity:0.855" fill="#a9b6cf" d="M 174.5,102.5 C 173.952,105.084 172.285,106.084 169.5,105.5C 171.22,104.692 172.887,103.692 174.5,102.5 Z"/></g>
    <g><path style="opacity:0.267" fill="#d5eefc" d="M 139.5,97.5 C 138.781,99.7638 138.448,102.097 138.5,104.5C 137.853,103.726 137.52,102.726 137.5,101.5C 137.34,99.6455 138.007,98.3121 139.5,97.5 Z"/></g>
    <g><path style="opacity:0.38" fill="#bfd1e7" d="M 169.5,105.5 C 169.082,106.222 168.416,106.722 167.5,107C 162.524,107.747 157.524,108.247 152.5,108.5C 148.553,108.637 144.886,107.97 141.5,106.5C 150.887,107.829 160.221,107.496 169.5,105.5 Z"/></g>
    <g><path style="opacity:1" fill="#5b8fbe" d="M 581.5,111.5 C 581.657,112.873 581.49,114.207 581,115.5C 580.282,114.549 579.449,114.383 578.5,115C 579.337,116.011 579.67,117.178 579.5,118.5C 578.5,118.833 577.833,119.5 577.5,120.5C 576.391,120.557 575.391,120.89 574.5,121.5C 571.594,121.916 568.761,122.582 566,123.5C 563.855,123.604 562.021,122.937 560.5,121.5C 559.853,123.54 559.853,125.207 560.5,126.5C 550.5,126.5 540.5,126.5 530.5,126.5C 527.482,126.296 524.482,125.963 521.5,125.5C 519.847,125.34 518.514,124.674 517.5,123.5C 516.738,121.738 515.404,120.738 513.5,120.5C 510.353,118.687 508.353,116.02 507.5,112.5C 507.5,112.167 507.5,111.833 507.5,111.5C 511.679,112.84 515.512,114.84 519,117.5C 521.678,116.577 524.178,115.243 526.5,113.5C 527.08,110.553 528.08,107.886 529.5,105.5C 530.209,106.404 531.209,106.737 532.5,106.5C 535.865,108.039 539.531,108.706 543.5,108.5C 548.538,108.373 553.538,107.873 558.5,107C 559.416,106.722 560.082,106.222 560.5,105.5C 561.833,105.5 563.167,105.5 564.5,105.5C 566.17,105.249 567.67,104.582 569,103.5C 569.952,100.356 569.119,97.8565 566.5,96C 569.318,95.1605 571.484,95.9938 573,98.5C 574.085,97.7069 575.252,97.0402 576.5,96.5C 577.902,101.373 579.569,106.373 581.5,111.5 Z"/></g>
    <g><path style="opacity:0.384" fill="#bacfe8" d="M 560.5,105.5 C 560.082,106.222 559.416,106.722 558.5,107C 553.538,107.873 548.538,108.373 543.5,108.5C 539.531,108.706 535.865,108.039 532.5,106.5C 541.887,107.829 551.221,107.496 560.5,105.5 Z"/></g>
    <g><path style="opacity:0.012" fill="#d9ecf8" d="M 195.5,111.5 C 195.573,113.027 194.906,114.027 193.5,114.5C 193.5,113.833 193.5,113.167 193.5,112.5C 194.167,112.167 194.833,111.833 195.5,111.5 Z"/></g>
    <g><path style="opacity:0.016" fill="#beebf7" d="M 585.5,111.5 C 585.833,111.5 586.167,111.5 586.5,111.5C 586.573,113.027 585.906,114.027 584.5,114.5C 584.557,113.391 584.89,112.391 585.5,111.5 Z"/></g>
    <g><path style="opacity:1" fill="#9ba9c1" d="M 115.5,111.5 C 118.934,113.013 120.934,115.68 121.5,119.5C 118.539,117.588 116.539,114.921 115.5,111.5 Z"/></g>
    <g><path style="opacity:1" fill="#75a0c5" d="M 581.5,111.5 C 582.833,111.5 584.167,111.5 585.5,111.5C 584.89,112.391 584.557,113.391 584.5,114.5C 583.5,116.167 582.167,117.5 580.5,118.5C 580.167,118.5 579.833,118.5 579.5,118.5C 579.67,117.178 579.337,116.011 578.5,115C 579.449,114.383 580.282,114.549 581,115.5C 581.49,114.207 581.657,112.873 581.5,111.5 Z"/></g>
    <g><path style="opacity:1" fill="#80a7ca" d="M 193.5,112.5 C 193.5,113.167 193.5,113.833 193.5,114.5C 191.057,118.276 187.724,120.943 183.5,122.5C 183.167,122.5 182.833,122.5 182.5,122.5C 184.4,119.751 186.567,117.084 189,114.5C 191.391,115.602 191.891,114.936 190.5,112.5C 191.614,111.224 192.614,111.224 193.5,112.5 Z"/></g>
    <g><path style="opacity:0.008" fill="#e0ecf7" d="M 579.5,118.5 C 579.833,118.5 580.167,118.5 580.5,118.5C 580.027,119.906 579.027,120.573 577.5,120.5C 577.833,119.5 578.5,118.833 579.5,118.5 Z"/></g>
    <g><path style="opacity:1" fill="#83a2c2" d="M 121.5,119.5 C 125.743,121.121 130.076,122.454 134.5,123.5C 135.681,125.067 137.347,125.901 139.5,126C 147.493,126.5 155.493,126.666 163.5,126.5C 168.805,124.253 174.472,122.92 180.5,122.5C 179.833,123.167 179.167,123.833 178.5,124.5C 173.594,127.058 168.261,128.558 162.5,129C 153.937,129.895 145.604,129.395 137.5,127.5C 134.374,125.01 130.708,123.677 126.5,123.5C 126.027,122.094 125.027,121.427 123.5,121.5C 122.5,121.167 121.833,120.5 121.5,119.5 Z"/></g>
    <g><path style="opacity:0.463" fill="#bfc9da" d="M 513.5,120.5 C 515.404,120.738 516.738,121.738 517.5,123.5C 515.596,123.262 514.262,122.262 513.5,120.5 Z"/></g>
    <g><path style="opacity:0.004" fill="#deebf5" d="M 577.5,120.5 C 577.027,121.906 576.027,122.573 574.5,122.5C 574.5,122.167 574.5,121.833 574.5,121.5C 575.391,120.89 576.391,120.557 577.5,120.5 Z"/></g>
    <g><path style="opacity:0.251" fill="#c9d6ea" d="M 123.5,121.5 C 125.027,121.427 126.027,122.094 126.5,123.5C 124.973,123.573 123.973,122.906 123.5,121.5 Z"/></g>
    <g><path style="opacity:0.345" fill="#c6dae9" d="M 180.5,122.5 C 181.167,122.5 181.833,122.5 182.5,122.5C 182.833,122.5 183.167,122.5 183.5,122.5C 182.22,123.931 180.553,124.598 178.5,124.5C 179.167,123.833 179.833,123.167 180.5,122.5 Z"/></g>
    <g><path style="opacity:1" fill="#81a4c4" d="M 574.5,121.5 C 574.5,121.833 574.5,122.167 574.5,122.5C 570.305,125.254 565.638,126.921 560.5,127.5C 560.5,127.167 560.5,126.833 560.5,126.5C 559.853,125.207 559.853,123.54 560.5,121.5C 562.021,122.937 563.855,123.604 566,123.5C 568.761,122.582 571.594,121.916 574.5,121.5 Z"/></g>
    <g><path style="opacity:0.784" fill="#9bb0c7" d="M 126.5,123.5 C 130.708,123.677 134.374,125.01 137.5,127.5C 133.327,127.333 129.66,126 126.5,123.5 Z"/></g>
    <g><path style="opacity:0.906" fill="#9eb4ce" d="M 521.5,125.5 C 524.482,125.963 527.482,126.296 530.5,126.5C 531.5,127.167 532.5,127.833 533.5,128.5C 529.163,128.416 525.163,127.416 521.5,125.5 Z"/></g>
    <g><path style="opacity:1" fill="#89a7c6" d="M 530.5,126.5 C 540.5,126.5 550.5,126.5 560.5,126.5C 560.5,126.833 560.5,127.167 560.5,127.5C 551.688,129.681 542.688,130.015 533.5,128.5C 532.5,127.833 531.5,127.167 530.5,126.5 Z"/></g>
</svg>
